<svg xmlns="http://www.w3.org/2000/svg" viewBox="0 0 1200 800">
  <rect width="1200" height="800" fill="#0A0A0A"/>
  <!-- Top bar -->
  <rect width="1200" height="48" fill="#111111"/>
  <rect x="0" y="48" width="1200" height="1" fill="#333"/>
  <circle cx="20" cy="24" r="6" fill="#d76542"/>
  <text x="40" y="30" fill="white" font-family="sans-serif" font-size="16" font-weight="bold">Canvas Care</text>
  <text x="1020" y="30" fill="#a3a3a3" font-family="sans-serif" font-size="12">Patient: Margaret W.</text>
  <circle cx="1170" cy="24" r="14" fill="#1a1a1a" stroke="#333" stroke-width="1"/>
  <text x="1165" y="28" fill="#a3a3a3" font-family="sans-serif" font-size="10" text-anchor="middle">CG</text>

  <!-- Left sidebar - Timeline -->
  <rect x="40" y="70" width="260" height="700" rx="12" fill="#1a1a1a" stroke="#333" stroke-width="1"/>
  <text x="60" y="100" fill="white" font-family="sans-serif" font-size="14" font-weight="600">Today's Timeline</text>
  <text x="270" y="100" fill="#d76542" font-family="sans-serif" font-size="11" text-anchor="end">Apr 8</text>

  <!-- Timeline entries -->
  <circle cx="80" cy="135" r="5" fill="#10B981"/>
  <line x1="80" y1="140" x2="80" y2="195" stroke="#333" stroke-width="1"/>
  <text x="100" y="132" fill="#a3a3a3" font-family="sans-serif" font-size="10">7:00 AM</text>
  <text x="100" y="148" fill="white" font-family="sans-serif" font-size="12">Morning vitals</text>
  <text x="100" y="163" fill="#10B981" font-family="sans-serif" font-size="10">BP: 128/82, HR: 72</text>

  <circle cx="80" cy="200" r="5" fill="#3B82F6"/>
  <line x1="80" y1="205" x2="80" y2="260" stroke="#333" stroke-width="1"/>
  <text x="100" y="197" fill="#a3a3a3" font-family="sans-serif" font-size="10">8:00 AM</text>
  <text x="100" y="213" fill="white" font-family="sans-serif" font-size="12">Medication given</text>
  <text x="100" y="228" fill="#3B82F6" font-family="sans-serif" font-size="10">Metformin 500mg</text>

  <circle cx="80" cy="265" r="5" fill="#10B981"/>
  <line x1="80" y1="270" x2="80" y2="325" stroke="#333" stroke-width="1"/>
  <text x="100" y="262" fill="#a3a3a3" font-family="sans-serif" font-size="10">9:30 AM</text>
  <text x="100" y="278" fill="white" font-family="sans-serif" font-size="12">Breakfast</text>
  <text x="100" y="293" fill="#10B981" font-family="sans-serif" font-size="10">Ate 80% of meal</text>

  <circle cx="80" cy="330" r="5" fill="#F59E0B"/>
  <line x1="80" y1="335" x2="80" y2="390" stroke="#333" stroke-width="1"/>
  <text x="100" y="327" fill="#a3a3a3" font-family="sans-serif" font-size="10">10:15 AM</text>
  <text x="100" y="343" fill="white" font-family="sans-serif" font-size="12">Mood check</text>
  <text x="100" y="358" fill="#F59E0B" font-family="sans-serif" font-size="10">Slightly agitated</text>

  <circle cx="80" cy="395" r="5" fill="#3B82F6"/>
  <line x1="80" y1="400" x2="80" y2="455" stroke="#333" stroke-width="1"/>
  <text x="100" y="392" fill="#a3a3a3" font-family="sans-serif" font-size="10">11:00 AM</text>
  <text x="100" y="408" fill="white" font-family="sans-serif" font-size="12">Physical therapy</text>
  <text x="100" y="423" fill="#3B82F6" font-family="sans-serif" font-size="10">30 min session</text>

  <circle cx="80" cy="460" r="5" fill="#10B981"/>
  <line x1="80" y1="465" x2="80" y2="520" stroke="#333" stroke-width="1"/>
  <text x="100" y="457" fill="#a3a3a3" font-family="sans-serif" font-size="10">12:30 PM</text>
  <text x="100" y="473" fill="white" font-family="sans-serif" font-size="12">Lunch</text>
  <text x="100" y="488" fill="#10B981" font-family="sans-serif" font-size="10">Ate full meal</text>

  <circle cx="80" cy="525" r="5" fill="#d76542"/>
  <line x1="80" y1="530" x2="80" y2="585" stroke="#333" stroke-width="1"/>
  <text x="100" y="522" fill="#a3a3a3" font-family="sans-serif" font-size="10">2:00 PM</text>
  <text x="100" y="538" fill="white" font-family="sans-serif" font-size="12">Afternoon vitals</text>
  <text x="100" y="553" fill="#d76542" font-family="sans-serif" font-size="10">BP: 135/88 (high)</text>

  <circle cx="80" cy="590" r="5" fill="#a3a3a3" stroke="#333" stroke-width="1"/>
  <text x="100" y="587" fill="#555" font-family="sans-serif" font-size="10">3:00 PM</text>
  <text x="100" y="603" fill="#555" font-family="sans-serif" font-size="12">Medication due</text>
  <text x="100" y="618" fill="#555" font-family="sans-serif" font-size="10">Upcoming</text>

  <!-- Main content - Health Metrics -->
  <rect x="320" y="70" width="540" height="160" rx="12" fill="#1a1a1a" stroke="#333" stroke-width="1"/>
  <text x="340" y="100" fill="white" font-family="sans-serif" font-size="14" font-weight="600">Vitals Overview</text>

  <!-- BP Card -->
  <rect x="340" y="115" width="155" height="95" rx="8" fill="#0A0A0A" stroke="#333" stroke-width="1"/>
  <text x="360" y="138" fill="#a3a3a3" font-family="sans-serif" font-size="10">Blood Pressure</text>
  <text x="360" y="165" fill="white" font-family="sans-serif" font-size="24" font-weight="bold">135/88</text>
  <text x="360" y="185" fill="#d76542" font-family="sans-serif" font-size="10">Slightly elevated</text>
  <circle cx="475" cy="185" r="4" fill="#d76542"/>

  <!-- HR Card -->
  <rect x="510" y="115" width="155" height="95" rx="8" fill="#0A0A0A" stroke="#333" stroke-width="1"/>
  <text x="530" y="138" fill="#a3a3a3" font-family="sans-serif" font-size="10">Heart Rate</text>
  <text x="530" y="165" fill="white" font-family="sans-serif" font-size="24" font-weight="bold">72</text>
  <text x="570" y="165" fill="#a3a3a3" font-family="sans-serif" font-size="12">bpm</text>
  <text x="530" y="185" fill="#10B981" font-family="sans-serif" font-size="10">Normal range</text>
  <circle cx="645" cy="185" r="4" fill="#10B981"/>

  <!-- Temp Card -->
  <rect x="680" y="115" width="155" height="95" rx="8" fill="#0A0A0A" stroke="#333" stroke-width="1"/>
  <text x="700" y="138" fill="#a3a3a3" font-family="sans-serif" font-size="10">Temperature</text>
  <text x="700" y="165" fill="white" font-family="sans-serif" font-size="24" font-weight="bold">98.4</text>
  <text x="755" y="165" fill="#a3a3a3" font-family="sans-serif" font-size="12">F</text>
  <text x="700" y="185" fill="#10B981" font-family="sans-serif" font-size="10">Normal</text>
  <circle cx="815" cy="185" r="4" fill="#10B981"/>

  <!-- Medication Schedule -->
  <rect x="320" y="250" width="540" height="200" rx="12" fill="#1a1a1a" stroke="#333" stroke-width="1"/>
  <text x="340" y="280" fill="white" font-family="sans-serif" font-size="14" font-weight="600">Medication Schedule</text>

  <rect x="340" y="300" width="500" height="36" rx="6" fill="#0A0A0A" stroke="#10B981" stroke-width="1"/>
  <circle cx="360" cy="318" r="8" fill="#10B981"/>
  <text x="356" y="322" fill="white" font-family="sans-serif" font-size="10" text-anchor="middle">&#x2713;</text>
  <text x="380" y="322" fill="white" font-family="sans-serif" font-size="12">Metformin 500mg</text>
  <text x="740" y="322" fill="#10B981" font-family="sans-serif" font-size="10" text-anchor="end">8:00 AM - Given</text>

  <rect x="340" y="344" width="500" height="36" rx="6" fill="#0A0A0A" stroke="#10B981" stroke-width="1"/>
  <circle cx="360" cy="362" r="8" fill="#10B981"/>
  <text x="356" y="366" fill="white" font-family="sans-serif" font-size="10" text-anchor="middle">&#x2713;</text>
  <text x="380" y="366" fill="white" font-family="sans-serif" font-size="12">Lisinopril 10mg</text>
  <text x="740" y="366" fill="#10B981" font-family="sans-serif" font-size="10" text-anchor="end">8:00 AM - Given</text>

  <rect x="340" y="388" width="500" height="36" rx="6" fill="#0A0A0A" stroke="#F59E0B" stroke-width="1"/>
  <circle cx="360" cy="406" r="8" fill="none" stroke="#F59E0B" stroke-width="1.5"/>
  <text x="380" y="410" fill="white" font-family="sans-serif" font-size="12">Aspirin 81mg</text>
  <text x="740" y="410" fill="#F59E0B" font-family="sans-serif" font-size="10" text-anchor="end">3:00 PM - Due soon</text>

  <!-- Mood Tracker -->
  <rect x="320" y="470" width="260" height="170" rx="12" fill="#1a1a1a" stroke="#333" stroke-width="1"/>
  <text x="340" y="500" fill="white" font-family="sans-serif" font-size="14" font-weight="600">Mood Tracker</text>
  <text x="340" y="530" fill="#a3a3a3" font-family="sans-serif" font-size="11">This week:</text>
  <!-- Mood dots -->
  <circle cx="370" cy="560" r="12" fill="#10B981" opacity="0.3"/>
  <text x="370" y="580" fill="#555" font-family="sans-serif" font-size="9" text-anchor="middle">Mon</text>
  <circle cx="410" cy="560" r="12" fill="#10B981" opacity="0.3"/>
  <text x="410" y="580" fill="#555" font-family="sans-serif" font-size="9" text-anchor="middle">Tue</text>
  <circle cx="450" cy="560" r="12" fill="#3B82F6" opacity="0.3"/>
  <text x="450" y="580" fill="#555" font-family="sans-serif" font-size="9" text-anchor="middle">Wed</text>
  <circle cx="490" cy="560" r="12" fill="#10B981" opacity="0.3"/>
  <text x="490" y="580" fill="#555" font-family="sans-serif" font-size="9" text-anchor="middle">Thu</text>
  <circle cx="530" cy="560" r="12" fill="#F59E0B" opacity="0.5"/>
  <text x="530" y="580" fill="#d76542" font-family="sans-serif" font-size="9" text-anchor="middle" font-weight="bold">Fri</text>
  <text x="340" y="620" fill="#a3a3a3" font-family="sans-serif" font-size="10">Overall: Mostly positive</text>

  <!-- Activity Log -->
  <rect x="600" y="470" width="260" height="170" rx="12" fill="#1a1a1a" stroke="#333" stroke-width="1"/>
  <text x="620" y="500" fill="white" font-family="sans-serif" font-size="14" font-weight="600">Activity</text>
  <text x="620" y="525" fill="#10B981" font-family="sans-serif" font-size="10">&#x25CF;</text>
  <text x="635" y="525" fill="#a3a3a3" font-family="sans-serif" font-size="11">Walking: 15 min</text>
  <text x="620" y="548" fill="#3B82F6" font-family="sans-serif" font-size="10">&#x25CF;</text>
  <text x="635" y="548" fill="#a3a3a3" font-family="sans-serif" font-size="11">PT session: 30 min</text>
  <text x="620" y="571" fill="#F59E0B" font-family="sans-serif" font-size="10">&#x25CF;</text>
  <text x="635" y="571" fill="#a3a3a3" font-family="sans-serif" font-size="11">Rest: 2 hours</text>
  <rect x="620" y="590" width="220" height="8" rx="4" fill="#2a2a2a"/>
  <rect x="620" y="590" width="130" height="8" rx="4" fill="#d76542"/>
  <text x="620" y="615" fill="#a3a3a3" font-family="sans-serif" font-size="10">Activity goal: 60% complete</text>

  <!-- Right panel - Caregiver Notes -->
  <rect x="880" y="70" width="280" height="570" rx="12" fill="#1a1a1a" stroke="#333" stroke-width="1"/>
  <text x="900" y="100" fill="white" font-family="sans-serif" font-size="14" font-weight="600">Caregiver Notes</text>
  <rect x="900" y="115" width="40" height="20" rx="4" fill="#d76542"/>
  <text x="920" y="129" fill="white" font-family="sans-serif" font-size="9" text-anchor="middle">+ Add</text>

  <rect x="900" y="150" width="240" height="80" rx="6" fill="#0A0A0A" stroke="#333" stroke-width="1"/>
  <text x="915" y="170" fill="#a3a3a3" font-family="sans-serif" font-size="10">2:15 PM - Nurse Sarah</text>
  <text x="915" y="190" fill="white" font-family="sans-serif" font-size="11">BP slightly elevated after lunch.</text>
  <text x="915" y="205" fill="white" font-family="sans-serif" font-size="11">Will monitor again at 3 PM.</text>

  <rect x="900" y="240" width="240" height="80" rx="6" fill="#0A0A0A" stroke="#333" stroke-width="1"/>
  <text x="915" y="260" fill="#a3a3a3" font-family="sans-serif" font-size="10">10:20 AM - Nurse Sarah</text>
  <text x="915" y="280" fill="white" font-family="sans-serif" font-size="11">Patient slightly agitated after</text>
  <text x="915" y="295" fill="white" font-family="sans-serif" font-size="11">breakfast. Offered calming tea.</text>

  <rect x="900" y="330" width="240" height="80" rx="6" fill="#0A0A0A" stroke="#333" stroke-width="1"/>
  <text x="915" y="350" fill="#a3a3a3" font-family="sans-serif" font-size="10">9:45 AM - Dr. Chen</text>
  <text x="915" y="370" fill="white" font-family="sans-serif" font-size="11">Reviewed weekly vitals report.</text>
  <text x="915" y="385" fill="white" font-family="sans-serif" font-size="11">Continue current medications.</text>

  <rect x="900" y="420" width="240" height="80" rx="6" fill="#0A0A0A" stroke="#333" stroke-width="1"/>
  <text x="915" y="440" fill="#a3a3a3" font-family="sans-serif" font-size="10">7:15 AM - Nurse Sarah</text>
  <text x="915" y="460" fill="white" font-family="sans-serif" font-size="11">Morning vitals taken. All within</text>
  <text x="915" y="475" fill="white" font-family="sans-serif" font-size="11">normal range. Good morning mood.</text>

  <!-- Bottom alert -->
  <rect x="320" y="660" width="840" height="110" rx="12" fill="#1a1a1a" stroke="#d76542" stroke-width="1.5"/>
  <text x="340" y="690" fill="#d76542" font-family="sans-serif" font-size="13" font-weight="600">Alert: Blood Pressure Trend</text>
  <text x="340" y="715" fill="#a3a3a3" font-family="sans-serif" font-size="12">BP has been trending upward over the past 3 days. Average: 132/86 (up from 125/80).</text>
  <text x="340" y="735" fill="#a3a3a3" font-family="sans-serif" font-size="12">Recommendation: Schedule follow-up with Dr. Chen. Consider dietary sodium review.</text>
  <rect x="340" y="748" width="90" height="24" rx="6" fill="#d76542"/>
  <text x="385" y="764" fill="white" font-family="sans-serif" font-size="11" font-weight="500" text-anchor="middle">Notify Dr.</text>
  <rect x="440" y="748" width="90" height="24" rx="6" fill="#2a2a2a" stroke="#333" stroke-width="1"/>
  <text x="485" y="764" fill="#a3a3a3" font-family="sans-serif" font-size="11" text-anchor="middle">Dismiss</text>
</svg>