<svg xmlns="http://www.w3.org/2000/svg" viewBox="0 0 1200 800">
  <rect width="1200" height="800" fill="#0A0A0A"/>
  <rect width="1200" height="48" fill="#111111"/>
  <rect x="0" y="48" width="1200" height="1" fill="#333"/>
  <circle cx="20" cy="24" r="6" fill="#d76542"/>
  <text x="40" y="30" fill="white" font-family="sans-serif" font-size="16" font-weight="bold">Canvas Care</text>
  <text x="180" y="30" fill="#a3a3a3" font-family="sans-serif" font-size="12">/ Family Dashboard</text>

  <!-- Patient list -->
  <rect x="40" y="70" width="300" height="700" rx="12" fill="#1a1a1a" stroke="#333" stroke-width="1"/>
  <text x="60" y="100" fill="white" font-family="sans-serif" font-size="14" font-weight="600">My Patients</text>

  <rect x="60" y="120" width="260" height="60" rx="8" fill="#d76542" opacity="0.1" stroke="#d76542" stroke-width="1"/>
  <circle cx="90" cy="150" r="16" fill="#d76542" opacity="0.3"/>
  <text x="86" y="154" fill="#d76542" font-family="sans-serif" font-size="10" text-anchor="middle">MW</text>
  <text x="116" y="145" fill="white" font-family="sans-serif" font-size="12" font-weight="500">Margaret Wilson</text>
  <text x="116" y="162" fill="#a3a3a3" font-family="sans-serif" font-size="10">Age 78 - Diabetes, Hypertension</text>
  <circle cx="300" cy="150" r="5" fill="#F59E0B"/>

  <rect x="60" y="190" width="260" height="60" rx="8" fill="#0A0A0A" stroke="#333" stroke-width="1"/>
  <circle cx="90" cy="220" r="16" fill="#3B82F6" opacity="0.3"/>
  <text x="86" y="224" fill="#3B82F6" font-family="sans-serif" font-size="10" text-anchor="middle">RH</text>
  <text x="116" y="215" fill="white" font-family="sans-serif" font-size="12">Robert Harris</text>
  <text x="116" y="232" fill="#a3a3a3" font-family="sans-serif" font-size="10">Age 82 - Heart disease</text>
  <circle cx="300" cy="220" r="5" fill="#10B981"/>

  <rect x="60" y="260" width="260" height="60" rx="8" fill="#0A0A0A" stroke="#333" stroke-width="1"/>
  <circle cx="90" cy="290" r="16" fill="#10B981" opacity="0.3"/>
  <text x="86" y="294" fill="#10B981" font-family="sans-serif" font-size="10" text-anchor="middle">EK</text>
  <text x="116" y="285" fill="white" font-family="sans-serif" font-size="12">Elizabeth Kim</text>
  <text x="116" y="302" fill="#a3a3a3" font-family="sans-serif" font-size="10">Age 71 - Arthritis</text>
  <circle cx="300" cy="290" r="5" fill="#10B981"/>

  <!-- Shared family view -->
  <rect x="60" y="350" width="260" height="1" fill="#333"/>
  <text x="60" y="380" fill="white" font-family="sans-serif" font-size="14" font-weight="600">Family Access</text>

  <rect x="60" y="400" width="260" height="45" rx="6" fill="#0A0A0A"/>
  <text x="80" y="425" fill="white" font-family="sans-serif" font-size="11">Sarah Wilson (daughter)</text>
  <rect x="260" y="412" width="44" height="16" rx="4" fill="#10B981" opacity="0.2"/>
  <text x="282" y="424" fill="#10B981" font-family="sans-serif" font-size="9" text-anchor="middle">View</text>

  <rect x="60" y="455" width="260" height="45" rx="6" fill="#0A0A0A"/>
  <text x="80" y="480" fill="white" font-family="sans-serif" font-size="11">Dr. Chen (physician)</text>
  <rect x="260" y="467" width="44" height="16" rx="4" fill="#3B82F6" opacity="0.2"/>
  <text x="282" y="479" fill="#3B82F6" font-family="sans-serif" font-size="9" text-anchor="middle">Full</text>

  <rect x="60" y="510" width="260" height="45" rx="6" fill="#0A0A0A"/>
  <text x="80" y="535" fill="white" font-family="sans-serif" font-size="11">Tom Wilson (son)</text>
  <rect x="260" y="522" width="44" height="16" rx="4" fill="#10B981" opacity="0.2"/>
  <text x="282" y="534" fill="#10B981" font-family="sans-serif" font-size="9" text-anchor="middle">View</text>

  <!-- Main - Emergency contacts & care plan -->
  <rect x="360" y="70" width="800" height="200" rx="12" fill="#1a1a1a" stroke="#333" stroke-width="1"/>
  <text x="380" y="100" fill="white" font-family="sans-serif" font-size="16" font-weight="600">Care Plan - Margaret Wilson</text>
  <rect x="380" y="115" width="750" height="1" fill="#333"/>

  <text x="380" y="145" fill="#d76542" font-family="sans-serif" font-size="12" font-weight="500">Primary Conditions</text>
  <rect x="380" y="155" width="100" height="22" rx="6" fill="#d76542" opacity="0.15"/>
  <text x="430" y="170" fill="#d76542" font-family="sans-serif" font-size="10" text-anchor="middle">Type 2 Diabetes</text>
  <rect x="490" y="155" width="95" height="22" rx="6" fill="#F59E0B" opacity="0.15"/>
  <text x="537" y="170" fill="#F59E0B" font-family="sans-serif" font-size="10" text-anchor="middle">Hypertension</text>
  <rect x="595" y="155" width="80" height="22" rx="6" fill="#3B82F6" opacity="0.15"/>
  <text x="635" y="170" fill="#3B82F6" font-family="sans-serif" font-size="10" text-anchor="middle">Osteoporosis</text>

  <text x="380" y="205" fill="#a3a3a3" font-family="sans-serif" font-size="12" font-weight="500">Care Goals</text>
  <text x="395" y="225" fill="#a3a3a3" font-family="sans-serif" font-size="11">1. Maintain blood sugar HbA1c below 7%</text>
  <text x="395" y="245" fill="#a3a3a3" font-family="sans-serif" font-size="11">2. Keep blood pressure under 130/80</text>
  <text x="395" y="265" fill="#a3a3a3" font-family="sans-serif" font-size="11">3. Daily physical activity 30+ minutes</text>

  <text x="800" y="145" fill="#a3a3a3" font-family="sans-serif" font-size="12" font-weight="500">Emergency Contacts</text>
  <text x="800" y="170" fill="white" font-family="sans-serif" font-size="11">Dr. Chen: (555) 123-4567</text>
  <text x="800" y="190" fill="white" font-family="sans-serif" font-size="11">Sarah Wilson: (555) 987-6543</text>
  <text x="800" y="210" fill="white" font-family="sans-serif" font-size="11">Pharmacy: (555) 456-7890</text>

  <!-- Appointment schedule -->
  <rect x="360" y="290" width="390" height="280" rx="12" fill="#1a1a1a" stroke="#333" stroke-width="1"/>
  <text x="380" y="320" fill="white" font-family="sans-serif" font-size="14" font-weight="600">Upcoming Appointments</text>

  <rect x="380" y="340" width="350" height="50" rx="6" fill="#0A0A0A" stroke="#d76542" stroke-width="1"/>
  <text x="400" y="360" fill="#d76542" font-family="sans-serif" font-size="11" font-weight="500">Apr 10 - 2:00 PM</text>
  <text x="400" y="378" fill="white" font-family="sans-serif" font-size="12">Dr. Chen - BP Follow-up</text>
  <rect x="680" y="352" width="36" height="20" rx="4" fill="#d76542" opacity="0.2"/>
  <text x="698" y="366" fill="#d76542" font-family="sans-serif" font-size="9" text-anchor="middle">Urgent</text>

  <rect x="380" y="400" width="350" height="50" rx="6" fill="#0A0A0A" stroke="#333" stroke-width="1"/>
  <text x="400" y="420" fill="#a3a3a3" font-family="sans-serif" font-size="11">Apr 15 - 10:00 AM</text>
  <text x="400" y="438" fill="white" font-family="sans-serif" font-size="12">Lab Work - Blood panel</text>

  <rect x="380" y="460" width="350" height="50" rx="6" fill="#0A0A0A" stroke="#333" stroke-width="1"/>
  <text x="400" y="480" fill="#a3a3a3" font-family="sans-serif" font-size="11">Apr 22 - 3:30 PM</text>
  <text x="400" y="498" fill="white" font-family="sans-serif" font-size="12">Physical Therapy - Monthly eval</text>

  <!-- Incident log -->
  <rect x="770" y="290" width="390" height="280" rx="12" fill="#1a1a1a" stroke="#333" stroke-width="1"/>
  <text x="790" y="320" fill="white" font-family="sans-serif" font-size="14" font-weight="600">Incident Log</text>

  <rect x="790" y="340" width="350" height="55" rx="6" fill="#0A0A0A" stroke="#F59E0B" stroke-width="1"/>
  <text x="810" y="358" fill="#F59E0B" font-family="sans-serif" font-size="10">Apr 8 - 10:15 AM</text>
  <text x="810" y="376" fill="white" font-family="sans-serif" font-size="11">Agitation episode - resolved with tea</text>
  <rect x="1095" y="348" width="30" height="16" rx="4" fill="#F59E0B" opacity="0.2"/>
  <text x="1110" y="360" fill="#F59E0B" font-family="sans-serif" font-size="8" text-anchor="middle">Low</text>

  <rect x="790" y="405" width="350" height="55" rx="6" fill="#0A0A0A" stroke="#333" stroke-width="1"/>
  <text x="810" y="423" fill="#a3a3a3" font-family="sans-serif" font-size="10">Apr 5 - 8:30 PM</text>
  <text x="810" y="441" fill="white" font-family="sans-serif" font-size="11">Mild dizziness after standing - monitored</text>

  <rect x="790" y="470" width="350" height="55" rx="6" fill="#0A0A0A" stroke="#333" stroke-width="1"/>
  <text x="810" y="488" fill="#a3a3a3" font-family="sans-serif" font-size="10">Apr 2 - 2:00 PM</text>
  <text x="810" y="506" fill="white" font-family="sans-serif" font-size="11">Missed afternoon medication - corrected</text>

  <!-- AI insights -->
  <rect x="360" y="590" width="800" height="180" rx="12" fill="#1a1a1a" stroke="#d76542" stroke-width="1.5"/>
  <text x="380" y="620" fill="#d76542" font-family="sans-serif" font-size="14" font-weight="600">AI Health Insights</text>
  <text x="380" y="650" fill="#a3a3a3" font-family="sans-serif" font-size="12">1. BP trending up 5 mmHg over 7 days - consider medication adjustment discussion with Dr. Chen</text>
  <text x="380" y="675" fill="#a3a3a3" font-family="sans-serif" font-size="12">2. Sleep quality declining (avg 6.5 hrs vs 7.2 hrs last week) - may correlate with BP increase</text>
  <text x="380" y="700" fill="#a3a3a3" font-family="sans-serif" font-size="12">3. Mood pattern: agitation incidents correlate with poor sleep nights</text>
  <text x="380" y="725" fill="#a3a3a3" font-family="sans-serif" font-size="12">4. Nutrition compliance excellent at 93% - maintain current meal plan</text>
  <rect x="380" y="740" width="120" height="24" rx="6" fill="#d76542"/>
  <text x="440" y="756" fill="white" font-family="sans-serif" font-size="11" font-weight="500" text-anchor="middle">Share with Dr.</text>
</svg>