<svg xmlns="http://www.w3.org/2000/svg" viewBox="0 0 1200 800">
  <rect width="1200" height="800" fill="#0A0A0A"/>
  <!-- Top bar -->
  <rect width="1200" height="48" fill="#111111"/>
  <rect x="0" y="48" width="1200" height="1" fill="#333"/>
  <text x="40" y="30" fill="white" font-family="sans-serif" font-size="16" font-weight="bold">DataPulse</text>
  <circle cx="20" cy="24" r="6" fill="#EF4444"/>
  <circle cx="40" cy="24" r="6" fill="#F59E0B"/>
  <circle cx="60" cy="24" r="6" fill="#10B981"/>
  <!-- Pause/Resume button -->
  <rect x="1060" y="8" width="120" height="32" rx="6" fill="#1a1a1a" stroke="#333" stroke-width="1"/>
  <rect x="1085" y="18" width="4" height="12" fill="#d76542"/>
  <rect x="1093" y="18" width="4" height="12" fill="#d76542"/>
  <text x="1108" y="29" fill="#a3a3a3" font-family="sans-serif" font-size="12">Pause</text>
  <!-- Full width line chart -->
  <rect x="40" y="70" width="1120" height="660" rx="12" fill="#1a1a1a" stroke="#333" stroke-width="1"/>
  <text x="70" y="105" fill="white" font-family="sans-serif" font-size="18" font-weight="600">Request Volume</text>
  <text x="70" y="125" fill="#a3a3a3" font-family="sans-serif" font-size="12">Real-time requests per second</text>
  <!-- Time range tabs -->
  <rect x="850" y="88" width="50" height="28" rx="6" fill="#252525"/>
  <text x="875" y="106" fill="#a3a3a3" font-family="sans-serif" font-size="11" text-anchor="middle">1H</text>
  <rect x="905" y="88" width="50" height="28" rx="6" fill="#d76542"/>
  <text x="930" y="106" fill="white" font-family="sans-serif" font-size="11" text-anchor="middle">6H</text>
  <rect x="960" y="88" width="50" height="28" rx="6" fill="#252525"/>
  <text x="985" y="106" fill="#a3a3a3" font-family="sans-serif" font-size="11" text-anchor="middle">24H</text>
  <rect x="1015" y="88" width="50" height="28" rx="6" fill="#252525"/>
  <text x="1040" y="106" fill="#a3a3a3" font-family="sans-serif" font-size="11" text-anchor="middle">7D</text>
  <rect x="1070" y="88" width="60" height="28" rx="6" fill="#252525"/>
  <text x="1100" y="106" fill="#a3a3a3" font-family="sans-serif" font-size="11" text-anchor="middle">30D</text>
  <!-- Y axis -->
  <text x="70" y="170" fill="#555" font-family="sans-serif" font-size="11">5000</text>
  <text x="70" y="250" fill="#555" font-family="sans-serif" font-size="11">4000</text>
  <text x="70" y="330" fill="#555" font-family="sans-serif" font-size="11">3000</text>
  <text x="70" y="410" fill="#555" font-family="sans-serif" font-size="11">2000</text>
  <text x="70" y="490" fill="#555" font-family="sans-serif" font-size="11">1000</text>
  <text x="70" y="570" fill="#555" font-family="sans-serif" font-size="11">0</text>
  <!-- Grid -->
  <line x1="110" y1="165" x2="1130" y2="165" stroke="#222" stroke-width="1"/>
  <line x1="110" y1="245" x2="1130" y2="245" stroke="#222" stroke-width="1"/>
  <line x1="110" y1="325" x2="1130" y2="325" stroke="#222" stroke-width="1"/>
  <line x1="110" y1="405" x2="1130" y2="405" stroke="#222" stroke-width="1"/>
  <line x1="110" y1="485" x2="1130" y2="485" stroke="#222" stroke-width="1"/>
  <line x1="110" y1="565" x2="1130" y2="565" stroke="#222" stroke-width="1"/>
  <!-- Chart gradient -->
  <defs>
    <linearGradient id="lineGrad" x1="0" y1="0" x2="0" y2="1">
      <stop offset="0%" stop-color="#d76542" stop-opacity="0.25"/>
      <stop offset="100%" stop-color="#d76542" stop-opacity="0"/>
    </linearGradient>
  </defs>
  <path d="M110,480 L160,460 L210,440 L260,420 L310,380 L360,350 L410,320 L460,330 L510,290 L560,300 L610,260 L660,280 L710,250 L760,240 L810,230 L860,220 L910,250 L960,240 L1010,230 L1060,210 L1110,200 L1110,565 L110,565 Z" fill="url(#lineGrad)"/>
  <polyline points="110,480 160,460 210,440 260,420 310,380 360,350 410,320 460,330 510,290 560,300 610,260 660,280 710,250 760,240 810,230 860,220 910,250 960,240 1010,230 1060,210 1110,200" fill="none" stroke="#d76542" stroke-width="2.5"/>
  <!-- Data points -->
  <circle cx="110" cy="480" r="3" fill="#d76542"/>
  <circle cx="310" cy="380" r="3" fill="#d76542"/>
  <circle cx="510" cy="290" r="3" fill="#d76542"/>
  <circle cx="710" cy="250" r="3" fill="#d76542"/>
  <circle cx="910" cy="250" r="3" fill="#d76542"/>
  <circle cx="1110" cy="200" r="3" fill="#d76542"/>
  <!-- Tooltip -->
  <line x1="810" y1="140" x2="810" y2="565" stroke="#d76542" stroke-width="1" stroke-dasharray="4,4" opacity="0.5"/>
  <circle cx="810" cy="230" r="6" fill="#d76542" stroke="white" stroke-width="2"/>
  <rect x="760" y="180" width="100" height="40" rx="6" fill="#252525" stroke="#333" stroke-width="1"/>
  <text x="810" y="197" fill="white" font-family="sans-serif" font-size="11" text-anchor="middle">14:30</text>
  <text x="810" y="213" fill="#d76542" font-family="sans-serif" font-size="13" font-weight="bold" text-anchor="middle">3,847</text>
  <!-- X axis -->
  <text x="110" y="590" fill="#555" font-family="sans-serif" font-size="10">09:00</text>
  <text x="280" y="590" fill="#555" font-family="sans-serif" font-size="10">10:00</text>
  <text x="450" y="590" fill="#555" font-family="sans-serif" font-size="10">11:00</text>
  <text x="620" y="590" fill="#555" font-family="sans-serif" font-size="10">12:00</text>
  <text x="790" y="590" fill="#555" font-family="sans-serif" font-size="10">13:00</text>
  <text x="960" y="590" fill="#555" font-family="sans-serif" font-size="10">14:00</text>
  <text x="1100" y="590" fill="#555" font-family="sans-serif" font-size="10">15:00</text>
  <!-- Stats row at bottom -->
  <rect x="70" y="620" width="240" height="80" rx="8" fill="#252525"/>
  <text x="90" y="645" fill="#a3a3a3" font-family="sans-serif" font-size="11">Average</text>
  <text x="90" y="675" fill="white" font-family="sans-serif" font-size="22" font-weight="bold">2,841</text>
  <text x="190" y="675" fill="#a3a3a3" font-family="sans-serif" font-size="11">req/s</text>
  <rect x="340" y="620" width="240" height="80" rx="8" fill="#252525"/>
  <text x="360" y="645" fill="#a3a3a3" font-family="sans-serif" font-size="11">Peak</text>
  <text x="360" y="675" fill="white" font-family="sans-serif" font-size="22" font-weight="bold">4,923</text>
  <text x="460" y="675" fill="#10B981" font-family="sans-serif" font-size="11">at 14:45</text>
  <rect x="610" y="620" width="240" height="80" rx="8" fill="#252525"/>
  <text x="630" y="645" fill="#a3a3a3" font-family="sans-serif" font-size="11">P99 Latency</text>
  <text x="630" y="675" fill="white" font-family="sans-serif" font-size="22" font-weight="bold">142ms</text>
  <rect x="880" y="620" width="240" height="80" rx="8" fill="#252525"/>
  <text x="900" y="645" fill="#a3a3a3" font-family="sans-serif" font-size="11">Error Rate</text>
  <text x="900" y="675" fill="#10B981" font-family="sans-serif" font-size="22" font-weight="bold">0.12%</text>
</svg>