<svg xmlns="http://www.w3.org/2000/svg" viewBox="0 0 1200 800">
  <rect width="1200" height="800" fill="#0A0A0A"/>
  <!-- Top bar -->
  <rect width="1200" height="48" fill="#111111"/>
  <rect x="0" y="48" width="1200" height="1" fill="#333"/>
  <text x="40" y="30" fill="white" font-family="sans-serif" font-size="16" font-weight="bold">DataPulse</text>
  <circle cx="1140" cy="24" r="5" fill="#10B981"/>
  <text x="1152" y="28" fill="#10B981" font-family="sans-serif" font-size="11" font-weight="600">LIVE</text>
  <circle cx="20" cy="24" r="6" fill="#EF4444"/>
  <circle cx="40" cy="24" r="6" fill="#F59E0B"/>
  <circle cx="60" cy="24" r="6" fill="#10B981"/>
  <!-- 2x2 Grid -->
  <!-- Top-left: Line Chart -->
  <rect x="40" y="70" width="560" height="340" rx="12" fill="#1a1a1a" stroke="#333" stroke-width="1"/>
  <text x="60" y="100" fill="white" font-family="sans-serif" font-size="14" font-weight="600">Revenue Trend</text>
  <text x="570" y="100" fill="#a3a3a3" font-family="sans-serif" font-size="11" text-anchor="end">Last 30 days</text>
  <!-- Y axis -->
  <text x="55" y="140" fill="#555" font-family="sans-serif" font-size="9">$50K</text>
  <text x="55" y="200" fill="#555" font-family="sans-serif" font-size="9">$30K</text>
  <text x="55" y="260" fill="#555" font-family="sans-serif" font-size="9">$10K</text>
  <line x1="80" y1="135" x2="580" y2="135" stroke="#222" stroke-width="0.5"/>
  <line x1="80" y1="195" x2="580" y2="195" stroke="#222" stroke-width="0.5"/>
  <line x1="80" y1="255" x2="580" y2="255" stroke="#222" stroke-width="0.5"/>
  <line x1="80" y1="315" x2="580" y2="315" stroke="#222" stroke-width="0.5"/>
  <defs>
    <linearGradient id="g1" x1="0" y1="0" x2="0" y2="1">
      <stop offset="0%" stop-color="#3B82F6" stop-opacity="0.2"/>
      <stop offset="100%" stop-color="#3B82F6" stop-opacity="0"/>
    </linearGradient>
  </defs>
  <path d="M80,280 L130,270 L180,250 L230,240 L280,220 L330,200 L380,190 L430,180 L480,160 L530,150 L580,140 L580,315 L80,315 Z" fill="url(#g1)"/>
  <polyline points="80,280 130,270 180,250 230,240 280,220 330,200 380,190 430,180 480,160 530,150 580,140" fill="none" stroke="#3B82F6" stroke-width="2"/>
  <!-- Second line -->
  <polyline points="80,300 130,290 180,285 230,280 280,270 330,260 380,250 430,245 480,240 530,235 580,230" fill="none" stroke="#d76542" stroke-width="2" stroke-dasharray="4,4"/>
  <!-- Legend -->
  <line x1="60" y1="380" x2="80" y2="380" stroke="#3B82F6" stroke-width="2"/>
  <text x="85" y="384" fill="#a3a3a3" font-family="sans-serif" font-size="10">Actual</text>
  <line x1="140" y1="380" x2="160" y2="380" stroke="#d76542" stroke-width="2" stroke-dasharray="4,4"/>
  <text x="165" y="384" fill="#a3a3a3" font-family="sans-serif" font-size="10">Forecast</text>
  <!-- X axis -->
  <text x="80" y="340" fill="#555" font-family="sans-serif" font-size="9">Week 1</text>
  <text x="230" y="340" fill="#555" font-family="sans-serif" font-size="9">Week 2</text>
  <text x="380" y="340" fill="#555" font-family="sans-serif" font-size="9">Week 3</text>
  <text x="530" y="340" fill="#555" font-family="sans-serif" font-size="9">Week 4</text>

  <!-- Top-right: Bar Chart -->
  <rect x="620" y="70" width="540" height="340" rx="12" fill="#1a1a1a" stroke="#333" stroke-width="1"/>
  <text x="640" y="100" fill="white" font-family="sans-serif" font-size="14" font-weight="600">Users by Region</text>
  <!-- Horizontal bars -->
  <text x="640" y="140" fill="#a3a3a3" font-family="sans-serif" font-size="12">North America</text>
  <rect x="770" y="126" width="350" height="20" rx="4" fill="#d76542"/>
  <text x="1130" y="141" fill="white" font-family="sans-serif" font-size="11" text-anchor="end">4,231</text>
  <text x="640" y="180" fill="#a3a3a3" font-family="sans-serif" font-size="12">Europe</text>
  <rect x="770" y="166" width="280" height="20" rx="4" fill="#d76542" opacity="0.8"/>
  <text x="1060" y="181" fill="white" font-family="sans-serif" font-size="11" text-anchor="end">3,402</text>
  <text x="640" y="220" fill="#a3a3a3" font-family="sans-serif" font-size="12">Asia Pacific</text>
  <rect x="770" y="206" width="240" height="20" rx="4" fill="#d76542" opacity="0.7"/>
  <text x="1020" y="221" fill="white" font-family="sans-serif" font-size="11" text-anchor="end">2,891</text>
  <text x="640" y="260" fill="#a3a3a3" font-family="sans-serif" font-size="12">Latin America</text>
  <rect x="770" y="246" width="140" height="20" rx="4" fill="#d76542" opacity="0.5"/>
  <text x="920" y="261" fill="white" font-family="sans-serif" font-size="11" text-anchor="end">1,654</text>
  <text x="640" y="300" fill="#a3a3a3" font-family="sans-serif" font-size="12">Africa</text>
  <rect x="770" y="286" width="80" height="20" rx="4" fill="#d76542" opacity="0.4"/>
  <text x="860" y="301" fill="white" font-family="sans-serif" font-size="11" text-anchor="end">892</text>
  <text x="640" y="340" fill="#a3a3a3" font-family="sans-serif" font-size="12">Middle East</text>
  <rect x="770" y="326" width="60" height="20" rx="4" fill="#d76542" opacity="0.3"/>
  <text x="840" y="341" fill="white" font-family="sans-serif" font-size="11" text-anchor="end">672</text>

  <!-- Bottom-left: Donut Chart -->
  <rect x="40" y="430" width="560" height="340" rx="12" fill="#1a1a1a" stroke="#333" stroke-width="1"/>
  <text x="60" y="460" fill="white" font-family="sans-serif" font-size="14" font-weight="600">Traffic Sources</text>
  <!-- Donut chart -->
  <circle cx="240" cy="620" r="100" fill="none" stroke="#333" stroke-width="30"/>
  <circle cx="240" cy="620" r="100" fill="none" stroke="#d76542" stroke-width="30" stroke-dasharray="220 408" stroke-dashoffset="0" transform="rotate(-90,240,620)"/>
  <circle cx="240" cy="620" r="100" fill="none" stroke="#3B82F6" stroke-width="30" stroke-dasharray="125 503" stroke-dashoffset="-220" transform="rotate(-90,240,620)"/>
  <circle cx="240" cy="620" r="100" fill="none" stroke="#10B981" stroke-width="30" stroke-dasharray="95 533" stroke-dashoffset="-345" transform="rotate(-90,240,620)"/>
  <circle cx="240" cy="620" r="100" fill="none" stroke="#FBBF24" stroke-width="30" stroke-dasharray="63 565" stroke-dashoffset="-440" transform="rotate(-90,240,620)"/>
  <!-- Center text -->
  <text x="240" y="615" fill="white" font-family="sans-serif" font-size="24" font-weight="bold" text-anchor="middle">13,742</text>
  <text x="240" y="638" fill="#a3a3a3" font-family="sans-serif" font-size="12" text-anchor="middle">Total visits</text>
  <!-- Legend -->
  <rect x="400" y="540" width="12" height="12" rx="2" fill="#d76542"/>
  <text x="420" y="551" fill="#a3a3a3" font-family="sans-serif" font-size="12">Organic - 35%</text>
  <rect x="400" y="565" width="12" height="12" rx="2" fill="#3B82F6"/>
  <text x="420" y="576" fill="#a3a3a3" font-family="sans-serif" font-size="12">Direct - 20%</text>
  <rect x="400" y="590" width="12" height="12" rx="2" fill="#10B981"/>
  <text x="420" y="601" fill="#a3a3a3" font-family="sans-serif" font-size="12">Social - 15%</text>
  <rect x="400" y="615" width="12" height="12" rx="2" fill="#FBBF24"/>
  <text x="420" y="626" fill="#a3a3a3" font-family="sans-serif" font-size="12">Referral - 10%</text>
  <rect x="400" y="640" width="12" height="12" rx="2" fill="#333"/>
  <text x="420" y="651" fill="#a3a3a3" font-family="sans-serif" font-size="12">Other - 20%</text>

  <!-- Bottom-right: KPI Counter -->
  <rect x="620" y="430" width="540" height="340" rx="12" fill="#1a1a1a" stroke="#333" stroke-width="1"/>
  <text x="640" y="460" fill="white" font-family="sans-serif" font-size="14" font-weight="600">Key Metrics</text>
  <!-- KPI items -->
  <rect x="640" y="480" width="240" height="80" rx="8" fill="#252525"/>
  <text x="660" y="505" fill="#a3a3a3" font-family="sans-serif" font-size="11">Conversion Rate</text>
  <text x="660" y="540" fill="white" font-family="sans-serif" font-size="26" font-weight="bold">3.42%</text>
  <text x="770" y="540" fill="#10B981" font-family="sans-serif" font-size="12">+0.8%</text>
  <rect x="900" y="480" width="240" height="80" rx="8" fill="#252525"/>
  <text x="920" y="505" fill="#a3a3a3" font-family="sans-serif" font-size="11">Avg. Session</text>
  <text x="920" y="540" fill="white" font-family="sans-serif" font-size="26" font-weight="bold">4m 32s</text>
  <rect x="640" y="580" width="240" height="80" rx="8" fill="#252525"/>
  <text x="660" y="605" fill="#a3a3a3" font-family="sans-serif" font-size="11">Bounce Rate</text>
  <text x="660" y="640" fill="white" font-family="sans-serif" font-size="26" font-weight="bold">28.5%</text>
  <text x="785" y="640" fill="#10B981" font-family="sans-serif" font-size="12">-3.2%</text>
  <rect x="900" y="580" width="240" height="80" rx="8" fill="#252525"/>
  <text x="920" y="605" fill="#a3a3a3" font-family="sans-serif" font-size="11">Page Views</text>
  <text x="920" y="640" fill="white" font-family="sans-serif" font-size="26" font-weight="bold">47.2K</text>
  <text x="1040" y="640" fill="#10B981" font-family="sans-serif" font-size="12">+15%</text>
  <!-- Server status -->
  <rect x="640" y="680" width="500" height="60" rx="8" fill="#252525"/>
  <circle cx="665" cy="710" r="6" fill="#10B981"/>
  <text x="680" y="705" fill="#a3a3a3" font-family="sans-serif" font-size="11">Server Status</text>
  <text x="680" y="725" fill="white" font-family="sans-serif" font-size="14" font-weight="600">All systems operational</text>
  <text x="1120" y="715" fill="#a3a3a3" font-family="sans-serif" font-size="10" text-anchor="end">Uptime: 99.98%</text>
</svg>