<svg xmlns="http://www.w3.org/2000/svg" viewBox="0 0 1200 800">
  <rect width="1200" height="800" fill="#0A0A0A"/>
  <!-- Top bar -->
  <rect width="1200" height="48" fill="#111111"/>
  <rect x="0" y="48" width="1200" height="1" fill="#333"/>
  <circle cx="20" cy="24" r="6" fill="#d76542"/>
  <text x="40" y="30" fill="white" font-family="sans-serif" font-size="16" font-weight="bold">Focus Flow</text>
  <text x="1080" y="30" fill="#a3a3a3" font-family="sans-serif" font-size="12">Daily Standup</text>
  <circle cx="1160" cy="24" r="14" fill="#1a1a1a" stroke="#333" stroke-width="1"/>
  <text x="1155" y="28" fill="#a3a3a3" font-family="sans-serif" font-size="10" text-anchor="middle">JK</text>

  <!-- Column Headers -->
  <!-- To Do -->
  <rect x="40" y="70" width="360" height="36" rx="8" fill="#1a1a1a"/>
  <circle cx="60" cy="88" r="6" fill="#F59E0B"/>
  <text x="76" y="93" fill="white" font-family="sans-serif" font-size="14" font-weight="600">To Do</text>
  <text x="370" y="93" fill="#555" font-family="sans-serif" font-size="12" text-anchor="end">4</text>
  <!-- In Progress -->
  <rect x="420" y="70" width="360" height="36" rx="8" fill="#1a1a1a"/>
  <circle cx="440" cy="88" r="6" fill="#3B82F6"/>
  <text x="456" y="93" fill="white" font-family="sans-serif" font-size="14" font-weight="600">In Progress</text>
  <text x="750" y="93" fill="#555" font-family="sans-serif" font-size="12" text-anchor="end">3</text>
  <!-- Done -->
  <rect x="800" y="70" width="360" height="36" rx="8" fill="#1a1a1a"/>
  <circle cx="820" cy="88" r="6" fill="#10B981"/>
  <text x="836" y="93" fill="white" font-family="sans-serif" font-size="14" font-weight="600">Done</text>
  <text x="1130" y="93" fill="#555" font-family="sans-serif" font-size="12" text-anchor="end">5</text>

  <!-- To Do Cards -->
  <rect x="40" y="120" width="360" height="90" rx="8" fill="#1a1a1a" stroke="#333" stroke-width="1"/>
  <rect x="40" y="120" width="4" height="90" rx="2" fill="#F59E0B"/>
  <text x="60" y="148" fill="white" font-family="sans-serif" font-size="13" font-weight="500">Redesign onboarding flow</text>
  <text x="60" y="170" fill="#a3a3a3" font-family="sans-serif" font-size="11">UX improvements for new users</text>
  <rect x="60" y="182" width="48" height="18" rx="4" fill="#2a2a2a"/>
  <text x="84" y="195" fill="#F59E0B" font-family="sans-serif" font-size="9" text-anchor="middle">Design</text>
  <text x="380" y="195" fill="#555" font-family="sans-serif" font-size="10" text-anchor="end">2d ago</text>

  <rect x="40" y="220" width="360" height="90" rx="8" fill="#1a1a1a" stroke="#333" stroke-width="1"/>
  <rect x="40" y="220" width="4" height="90" rx="2" fill="#F59E0B"/>
  <text x="60" y="248" fill="white" font-family="sans-serif" font-size="13" font-weight="500">Fix auth token refresh</text>
  <text x="60" y="270" fill="#a3a3a3" font-family="sans-serif" font-size="11">Token expires before refresh</text>
  <rect x="60" y="282" width="32" height="18" rx="4" fill="#2a2a2a"/>
  <text x="76" y="295" fill="#EF4444" font-family="sans-serif" font-size="9" text-anchor="middle">Bug</text>
  <text x="380" y="295" fill="#555" font-family="sans-serif" font-size="10" text-anchor="end">1d ago</text>

  <rect x="40" y="320" width="360" height="90" rx="8" fill="#1a1a1a" stroke="#333" stroke-width="1"/>
  <rect x="40" y="320" width="4" height="90" rx="2" fill="#F59E0B"/>
  <text x="60" y="348" fill="white" font-family="sans-serif" font-size="13" font-weight="500">Add export to CSV</text>
  <text x="60" y="370" fill="#a3a3a3" font-family="sans-serif" font-size="11">Users need data export</text>
  <rect x="60" y="382" width="52" height="18" rx="4" fill="#2a2a2a"/>
  <text x="86" y="395" fill="#3B82F6" font-family="sans-serif" font-size="9" text-anchor="middle">Feature</text>
  <text x="380" y="395" fill="#555" font-family="sans-serif" font-size="10" text-anchor="end">5h ago</text>

  <rect x="40" y="420" width="360" height="70" rx="8" fill="#1a1a1a" stroke="#333" stroke-width="1"/>
  <rect x="40" y="420" width="4" height="70" rx="2" fill="#F59E0B"/>
  <text x="60" y="448" fill="white" font-family="sans-serif" font-size="13" font-weight="500">Update API documentation</text>
  <text x="60" y="470" fill="#a3a3a3" font-family="sans-serif" font-size="11">Swagger spec out of date</text>

  <!-- In Progress Cards -->
  <rect x="420" y="120" width="360" height="90" rx="8" fill="#1a1a1a" stroke="#333" stroke-width="1"/>
  <rect x="420" y="120" width="4" height="90" rx="2" fill="#3B82F6"/>
  <text x="440" y="148" fill="white" font-family="sans-serif" font-size="13" font-weight="500">Build notification system</text>
  <text x="440" y="170" fill="#a3a3a3" font-family="sans-serif" font-size="11">Real-time push notifications</text>
  <rect x="440" y="182" width="52" height="18" rx="4" fill="#2a2a2a"/>
  <text x="466" y="195" fill="#3B82F6" font-family="sans-serif" font-size="9" text-anchor="middle">Feature</text>
  <circle cx="740" cy="190" r="12" fill="#1a1a1a" stroke="#3B82F6" stroke-width="1.5"/>
  <text x="735" y="194" fill="#3B82F6" font-family="sans-serif" font-size="9" text-anchor="middle">AS</text>

  <rect x="420" y="220" width="360" height="90" rx="8" fill="#1a1a1a" stroke="#333" stroke-width="1"/>
  <rect x="420" y="220" width="4" height="90" rx="2" fill="#3B82F6"/>
  <text x="440" y="248" fill="white" font-family="sans-serif" font-size="13" font-weight="500">Database migration v3</text>
  <text x="440" y="270" fill="#a3a3a3" font-family="sans-serif" font-size="11">Schema update for new features</text>
  <rect x="440" y="282" width="32" height="18" rx="4" fill="#2a2a2a"/>
  <text x="456" y="295" fill="#8B5CF6" font-family="sans-serif" font-size="9" text-anchor="middle">DB</text>

  <rect x="420" y="320" width="360" height="90" rx="8" fill="#1a1a1a" stroke="#333" stroke-width="1"/>
  <rect x="420" y="320" width="4" height="90" rx="2" fill="#3B82F6"/>
  <text x="440" y="348" fill="white" font-family="sans-serif" font-size="13" font-weight="500">Performance audit</text>
  <text x="440" y="370" fill="#a3a3a3" font-family="sans-serif" font-size="11">Lighthouse + bundle analysis</text>
  <rect x="440" y="382" width="52" height="18" rx="4" fill="#2a2a2a"/>
  <text x="466" y="395" fill="#10B981" font-family="sans-serif" font-size="9" text-anchor="middle">DevOps</text>

  <!-- Done Cards -->
  <rect x="800" y="120" width="360" height="80" rx="8" fill="#1a1a1a" stroke="#333" stroke-width="1"/>
  <rect x="800" y="120" width="4" height="80" rx="2" fill="#10B981"/>
  <text x="820" y="148" fill="#a3a3a3" font-family="sans-serif" font-size="13" font-weight="500" text-decoration="line-through">Setup CI/CD pipeline</text>
  <text x="820" y="170" fill="#555" font-family="sans-serif" font-size="11">GitHub Actions workflow</text>
  <text x="1140" y="185" fill="#555" font-family="sans-serif" font-size="10" text-anchor="end">Yesterday</text>

  <rect x="800" y="210" width="360" height="80" rx="8" fill="#1a1a1a" stroke="#333" stroke-width="1"/>
  <rect x="800" y="210" width="4" height="80" rx="2" fill="#10B981"/>
  <text x="820" y="238" fill="#a3a3a3" font-family="sans-serif" font-size="13" font-weight="500" text-decoration="line-through">User profile page</text>
  <text x="820" y="260" fill="#555" font-family="sans-serif" font-size="11">Avatar, bio, settings</text>
  <text x="1140" y="275" fill="#555" font-family="sans-serif" font-size="10" text-anchor="end">2d ago</text>

  <rect x="800" y="300" width="360" height="80" rx="8" fill="#1a1a1a" stroke="#333" stroke-width="1"/>
  <rect x="800" y="300" width="4" height="80" rx="2" fill="#10B981"/>
  <text x="820" y="328" fill="#a3a3a3" font-family="sans-serif" font-size="13" font-weight="500" text-decoration="line-through">Dark mode toggle</text>
  <text x="820" y="350" fill="#555" font-family="sans-serif" font-size="11">Theme provider component</text>

  <!-- AI Suggestion Card (highlighted) -->
  <rect x="40" y="520" width="1120" height="100" rx="12" fill="#1a1a1a" stroke="#d76542" stroke-width="2"/>
  <rect x="60" y="535" width="20" height="20" rx="4" fill="#d76542" opacity="0.2"/>
  <text x="66" y="550" fill="#d76542" font-family="sans-serif" font-size="12" font-weight="bold">AI</text>
  <text x="92" y="550" fill="#d76542" font-family="sans-serif" font-size="13" font-weight="600">AI Suggestion</text>
  <text x="60" y="575" fill="#a3a3a3" font-family="sans-serif" font-size="12">Based on sprint velocity, consider moving "Fix auth token refresh" to In Progress - it's blocking 2 other tasks.</text>
  <rect x="60" y="590" width="80" height="24" rx="6" fill="#d76542"/>
  <text x="100" y="606" fill="white" font-family="sans-serif" font-size="11" font-weight="500" text-anchor="middle">Apply</text>
  <rect x="150" y="590" width="80" height="24" rx="6" fill="#2a2a2a" stroke="#333" stroke-width="1"/>
  <text x="190" y="606" fill="#a3a3a3" font-family="sans-serif" font-size="11" text-anchor="middle">Dismiss</text>

  <!-- Bottom stats bar -->
  <rect x="40" y="640" width="1120" height="130" rx="12" fill="#1a1a1a" stroke="#333" stroke-width="1"/>
  <text x="60" y="670" fill="white" font-family="sans-serif" font-size="14" font-weight="600">Sprint Progress</text>
  <text x="1140" y="670" fill="#a3a3a3" font-family="sans-serif" font-size="11" text-anchor="end">Sprint 14 - Day 7/10</text>
  <!-- Progress bar -->
  <rect x="60" y="690" width="1080" height="8" rx="4" fill="#2a2a2a"/>
  <rect x="60" y="690" width="594" height="8" rx="4" fill="#d76542"/>
  <text x="60" y="720" fill="#a3a3a3" font-family="sans-serif" font-size="11">55% complete</text>
  <text x="300" y="720" fill="#a3a3a3" font-family="sans-serif" font-size="11">12 tasks total</text>
  <text x="500" y="720" fill="#10B981" font-family="sans-serif" font-size="11">5 done</text>
  <text x="620" y="720" fill="#3B82F6" font-family="sans-serif" font-size="11">3 in progress</text>
  <text x="780" y="720" fill="#F59E0B" font-family="sans-serif" font-size="11">4 to do</text>
  <!-- Burndown mini chart -->
  <text x="60" y="750" fill="#555" font-family="sans-serif" font-size="10">Burndown</text>
  <polyline points="120,750 200,745 300,735 400,720 500,718 600,715 700,740 800,738 900,730" fill="none" stroke="#d76542" stroke-width="1.5"/>
  <line x1="120" y1="750" x2="900" y2="710" stroke="#333" stroke-width="1" stroke-dasharray="4"/>
</svg>