<svg xmlns="http://www.w3.org/2000/svg" viewBox="0 0 1200 800">
  <rect width="1200" height="800" fill="#0A0A0A"/>
  <rect width="1200" height="48" fill="#111111"/>
  <rect x="0" y="48" width="1200" height="1" fill="#333"/>
  <circle cx="20" cy="24" r="6" fill="#d76542"/>
  <text x="40" y="30" fill="white" font-family="sans-serif" font-size="16" font-weight="bold">Lesson Loop</text>
  <text x="1020" y="30" fill="#a3a3a3" font-family="sans-serif" font-size="12">Ms. Johnson's Class</text>
  <circle cx="1170" cy="24" r="14" fill="#1a1a1a" stroke="#333" stroke-width="1"/>
  <text x="1165" y="28" fill="#a3a3a3" font-family="sans-serif" font-size="10" text-anchor="middle">MJ</text>

  <!-- Left panel - Student Questions -->
  <rect x="40" y="70" width="480" height="700" rx="12" fill="#1a1a1a" stroke="#333" stroke-width="1"/>
  <text x="60" y="100" fill="white" font-family="sans-serif" font-size="16" font-weight="600">Student Questions</text>
  <text x="490" y="100" fill="#d76542" font-family="sans-serif" font-size="11" text-anchor="end">24 questions today</text>

  <!-- Category filter -->
  <rect x="60" y="115" width="50" height="20" rx="4" fill="#d76542" opacity="0.2"/>
  <text x="85" y="129" fill="#d76542" font-family="sans-serif" font-size="9" text-anchor="middle">All</text>
  <rect x="118" y="115" width="50" height="20" rx="4" fill="#2a2a2a"/>
  <text x="143" y="129" fill="#a3a3a3" font-family="sans-serif" font-size="9" text-anchor="middle">Math</text>
  <rect x="176" y="115" width="60" height="20" rx="4" fill="#2a2a2a"/>
  <text x="206" y="129" fill="#a3a3a3" font-family="sans-serif" font-size="9" text-anchor="middle">Science</text>
  <rect x="244" y="115" width="60" height="20" rx="4" fill="#2a2a2a"/>
  <text x="274" y="129" fill="#a3a3a3" font-family="sans-serif" font-size="9" text-anchor="middle">English</text>
  <rect x="312" y="115" width="60" height="20" rx="4" fill="#2a2a2a"/>
  <text x="342" y="129" fill="#a3a3a3" font-family="sans-serif" font-size="9" text-anchor="middle">History</text>

  <!-- Question 1 (top voted) -->
  <rect x="60" y="150" width="440" height="80" rx="8" fill="#0A0A0A" stroke="#d76542" stroke-width="1"/>
  <rect x="72" y="165" width="36" height="50" rx="6" fill="#d76542" opacity="0.15"/>
  <text x="90" y="183" fill="#d76542" font-family="sans-serif" font-size="8" text-anchor="middle">&#x25B2;</text>
  <text x="90" y="200" fill="#d76542" font-family="sans-serif" font-size="14" font-weight="bold" text-anchor="middle">12</text>
  <text x="120" y="180" fill="white" font-family="sans-serif" font-size="13" font-weight="500">Why do we need to balance equations?</text>
  <rect x="120" y="188" width="55" height="16" rx="4" fill="#10B981" opacity="0.15"/>
  <text x="147" y="200" fill="#10B981" font-family="sans-serif" font-size="9" text-anchor="middle">Science</text>
  <text x="120" y="218" fill="#a3a3a3" font-family="sans-serif" font-size="10">Asked by 3 students - Most recent: Emma T.</text>

  <!-- Question 2 -->
  <rect x="60" y="240" width="440" height="80" rx="8" fill="#0A0A0A" stroke="#333" stroke-width="1"/>
  <rect x="72" y="255" width="36" height="50" rx="6" fill="#2a2a2a"/>
  <text x="90" y="273" fill="#a3a3a3" font-family="sans-serif" font-size="8" text-anchor="middle">&#x25B2;</text>
  <text x="90" y="290" fill="white" font-family="sans-serif" font-size="14" font-weight="bold" text-anchor="middle">8</text>
  <text x="120" y="270" fill="white" font-family="sans-serif" font-size="13" font-weight="500">Can you explain the quadratic formula?</text>
  <rect x="120" y="278" width="45" height="16" rx="4" fill="#3B82F6" opacity="0.15"/>
  <text x="142" y="290" fill="#3B82F6" font-family="sans-serif" font-size="9" text-anchor="middle">Math</text>
  <text x="120" y="308" fill="#a3a3a3" font-family="sans-serif" font-size="10">Asked by 2 students - Most recent: Jake R.</text>

  <!-- Question 3 -->
  <rect x="60" y="330" width="440" height="80" rx="8" fill="#0A0A0A" stroke="#333" stroke-width="1"/>
  <rect x="72" y="345" width="36" height="50" rx="6" fill="#2a2a2a"/>
  <text x="90" y="363" fill="#a3a3a3" font-family="sans-serif" font-size="8" text-anchor="middle">&#x25B2;</text>
  <text x="90" y="380" fill="white" font-family="sans-serif" font-size="14" font-weight="bold" text-anchor="middle">6</text>
  <text x="120" y="360" fill="white" font-family="sans-serif" font-size="13" font-weight="500">What's the difference between simile and metaphor?</text>
  <rect x="120" y="368" width="55" height="16" rx="4" fill="#F59E0B" opacity="0.15"/>
  <text x="147" y="380" fill="#F59E0B" font-family="sans-serif" font-size="9" text-anchor="middle">English</text>
  <text x="120" y="398" fill="#a3a3a3" font-family="sans-serif" font-size="10">Asked by Sophia L.</text>

  <!-- Question 4 -->
  <rect x="60" y="420" width="440" height="80" rx="8" fill="#0A0A0A" stroke="#333" stroke-width="1"/>
  <rect x="72" y="435" width="36" height="50" rx="6" fill="#2a2a2a"/>
  <text x="90" y="453" fill="#a3a3a3" font-family="sans-serif" font-size="8" text-anchor="middle">&#x25B2;</text>
  <text x="90" y="470" fill="white" font-family="sans-serif" font-size="14" font-weight="bold" text-anchor="middle">5</text>
  <text x="120" y="450" fill="white" font-family="sans-serif" font-size="13" font-weight="500">How did the French Revolution start?</text>
  <rect x="120" y="458" width="55" height="16" rx="4" fill="#8B5CF6" opacity="0.15"/>
  <text x="147" y="470" fill="#8B5CF6" font-family="sans-serif" font-size="9" text-anchor="middle">History</text>
  <text x="120" y="488" fill="#a3a3a3" font-family="sans-serif" font-size="10">Asked by Marcus K.</text>

  <!-- Question 5 -->
  <rect x="60" y="510" width="440" height="70" rx="8" fill="#0A0A0A" stroke="#333" stroke-width="1"/>
  <rect x="72" y="522" width="36" height="45" rx="6" fill="#2a2a2a"/>
  <text x="90" y="538" fill="#a3a3a3" font-family="sans-serif" font-size="8" text-anchor="middle">&#x25B2;</text>
  <text x="90" y="555" fill="white" font-family="sans-serif" font-size="14" font-weight="bold" text-anchor="middle">3</text>
  <text x="120" y="545" fill="white" font-family="sans-serif" font-size="13" font-weight="500">Is there homework tonight?</text>
  <rect x="120" y="553" width="55" height="16" rx="4" fill="#555" opacity="0.3"/>
  <text x="147" y="565" fill="#555" font-family="sans-serif" font-size="9" text-anchor="middle">General</text>

  <!-- Ask question input -->
  <rect x="60" y="600" width="440" height="36" rx="8" fill="#0A0A0A" stroke="#333" stroke-width="1"/>
  <text x="80" y="622" fill="#555" font-family="sans-serif" font-size="12">Submit a question anonymously...</text>
  <rect x="430" y="605" width="60" height="26" rx="6" fill="#d76542"/>
  <text x="460" y="622" fill="white" font-family="sans-serif" font-size="10" text-anchor="middle">Ask</text>

  <!-- Engagement stats -->
  <rect x="60" y="650" width="440" height="100" rx="8" fill="#0A0A0A" stroke="#333" stroke-width="1"/>
  <text x="80" y="675" fill="white" font-family="sans-serif" font-size="12" font-weight="500">Class Engagement</text>
  <text x="80" y="700" fill="#a3a3a3" font-family="sans-serif" font-size="11">28/32 students active today</text>
  <rect x="80" y="712" width="400" height="6" rx="3" fill="#2a2a2a"/>
  <rect x="80" y="712" width="350" height="6" rx="3" fill="#10B981"/>
  <text x="80" y="735" fill="#10B981" font-family="sans-serif" font-size="10">87.5% participation rate</text>

  <!-- Right panel - Lesson Plan -->
  <rect x="540" y="70" width="620" height="430" rx="12" fill="#1a1a1a" stroke="#333" stroke-width="1"/>
  <text x="560" y="100" fill="white" font-family="sans-serif" font-size="16" font-weight="600">Current Lesson Plan</text>
  <text x="1130" y="100" fill="#a3a3a3" font-family="sans-serif" font-size="11" text-anchor="end">Period 3 - Science</text>

  <!-- Lesson sections -->
  <rect x="560" y="115" width="580" height="55" rx="6" fill="#0A0A0A" stroke="#10B981" stroke-width="1"/>
  <circle cx="580" cy="142" r="8" fill="#10B981"/>
  <text x="576" y="146" fill="white" font-family="sans-serif" font-size="10" text-anchor="middle">&#x2713;</text>
  <text x="600" y="138" fill="white" font-family="sans-serif" font-size="12" font-weight="500">Introduction: Chemical Reactions (10 min)</text>
  <text x="600" y="158" fill="#a3a3a3" font-family="sans-serif" font-size="10">Review types of reactions from yesterday</text>
  <text x="1120" y="142" fill="#10B981" font-family="sans-serif" font-size="10" text-anchor="end">Done</text>

  <rect x="560" y="178" width="580" height="55" rx="6" fill="#0A0A0A" stroke="#d76542" stroke-width="1.5"/>
  <circle cx="580" cy="205" r="8" fill="#d76542"/>
  <text x="576" y="209" fill="white" font-family="sans-serif" font-size="10" text-anchor="middle">&#x25B6;</text>
  <text x="600" y="200" fill="white" font-family="sans-serif" font-size="12" font-weight="500">Balancing Equations Activity (20 min)</text>
  <text x="600" y="220" fill="#a3a3a3" font-family="sans-serif" font-size="10">Hands-on worksheet + partner practice</text>
  <text x="1120" y="205" fill="#d76542" font-family="sans-serif" font-size="10" text-anchor="end">In Progress</text>

  <rect x="560" y="241" width="580" height="55" rx="6" fill="#0A0A0A" stroke="#333" stroke-width="1"/>
  <circle cx="580" cy="268" r="8" fill="none" stroke="#333" stroke-width="1.5"/>
  <text x="600" y="263" fill="#a3a3a3" font-family="sans-serif" font-size="12">Group Discussion: Lab Safety (15 min)</text>
  <text x="600" y="283" fill="#555" font-family="sans-serif" font-size="10">Connect to upcoming lab experiment</text>
  <text x="1120" y="268" fill="#555" font-family="sans-serif" font-size="10" text-anchor="end">Upcoming</text>

  <rect x="560" y="304" width="580" height="55" rx="6" fill="#0A0A0A" stroke="#333" stroke-width="1"/>
  <circle cx="580" cy="331" r="8" fill="none" stroke="#333" stroke-width="1.5"/>
  <text x="600" y="326" fill="#a3a3a3" font-family="sans-serif" font-size="12">Exit Ticket: 3 Key Concepts (5 min)</text>
  <text x="600" y="346" fill="#555" font-family="sans-serif" font-size="10">Quick assessment of understanding</text>

  <!-- AI insight on questions -->
  <rect x="560" y="375" width="580" height="55" rx="6" fill="#0A0A0A" stroke="#d76542" stroke-width="1"/>
  <text x="580" y="398" fill="#d76542" font-family="sans-serif" font-size="11" font-weight="500">AI Insight: 12 students asked about balancing equations</text>
  <text x="580" y="418" fill="#a3a3a3" font-family="sans-serif" font-size="10">Consider extending the activity by 5 min and adding visual examples</text>

  <!-- Next Lesson Planning -->
  <rect x="540" y="520" width="620" height="250" rx="12" fill="#1a1a1a" stroke="#333" stroke-width="1"/>
  <text x="560" y="550" fill="white" font-family="sans-serif" font-size="14" font-weight="600">Next Lesson Planning</text>
  <text x="1130" y="550" fill="#a3a3a3" font-family="sans-serif" font-size="11" text-anchor="end">Tomorrow - Period 3</text>

  <text x="560" y="580" fill="#a3a3a3" font-family="sans-serif" font-size="12">Based on today's questions, AI suggests:</text>

  <rect x="560" y="595" width="580" height="40" rx="6" fill="#0A0A0A" stroke="#333" stroke-width="1"/>
  <text x="580" y="615" fill="white" font-family="sans-serif" font-size="11">1. Start with a 5-min review of balancing equations (high demand topic)</text>
  <text x="1120" y="615" fill="#d76542" font-family="sans-serif" font-size="10" text-anchor="end">Add</text>

  <rect x="560" y="643" width="580" height="40" rx="6" fill="#0A0A0A" stroke="#333" stroke-width="1"/>
  <text x="580" y="663" fill="white" font-family="sans-serif" font-size="11">2. Introduce lab safety rules before the practical experiment</text>
  <text x="1120" y="663" fill="#d76542" font-family="sans-serif" font-size="10" text-anchor="end">Add</text>

  <rect x="560" y="691" width="580" height="40" rx="6" fill="#0A0A0A" stroke="#333" stroke-width="1"/>
  <text x="580" y="711" fill="white" font-family="sans-serif" font-size="11">3. Address cross-subject connections (French Revolution + chemistry timeline)</text>
  <text x="1120" y="711" fill="#d76542" font-family="sans-serif" font-size="10" text-anchor="end">Add</text>

  <rect x="560" y="740" width="120" height="28" rx="6" fill="#d76542"/>
  <text x="620" y="758" fill="white" font-family="sans-serif" font-size="11" text-anchor="middle">Generate Plan</text>
</svg>