<svg xmlns="http://www.w3.org/2000/svg" viewBox="0 0 1200 800">
  <rect width="1200" height="800" fill="#0A0A0A"/>
  <!-- Top bar -->
  <rect width="1200" height="48" fill="#111111"/>
  <rect x="0" y="48" width="1200" height="1" fill="#333"/>
  <text x="600" y="30" fill="white" font-family="sans-serif" font-size="16" font-weight="bold" text-anchor="middle">PixelForge</text>
  <circle cx="20" cy="24" r="6" fill="#EF4444"/>
  <circle cx="40" cy="24" r="6" fill="#F59E0B"/>
  <circle cx="60" cy="24" r="6" fill="#10B981"/>
  <!-- Export button -->
  <rect x="1080" y="10" width="100" height="28" rx="6" fill="#d76542"/>
  <text x="1130" y="29" fill="white" font-family="sans-serif" font-size="12" font-weight="600" text-anchor="middle">Export PNG</text>
  <!-- Main grid area with completed pixel art (star) -->
  <rect x="40" y="68" width="720" height="680" fill="#111111" rx="4"/>
  <g transform="translate(120, 108)">
    <g stroke="#1a1a1a" stroke-width="0.3">
      <line x1="0" y1="0" x2="480" y2="0"/><line x1="0" y1="30" x2="480" y2="30"/><line x1="0" y1="60" x2="480" y2="60"/><line x1="0" y1="90" x2="480" y2="90"/><line x1="0" y1="120" x2="480" y2="120"/><line x1="0" y1="150" x2="480" y2="150"/><line x1="0" y1="180" x2="480" y2="180"/><line x1="0" y1="210" x2="480" y2="210"/><line x1="0" y1="240" x2="480" y2="240"/><line x1="0" y1="270" x2="480" y2="270"/><line x1="0" y1="300" x2="480" y2="300"/><line x1="0" y1="330" x2="480" y2="330"/><line x1="0" y1="360" x2="480" y2="360"/><line x1="0" y1="390" x2="480" y2="390"/><line x1="0" y1="420" x2="480" y2="420"/><line x1="0" y1="450" x2="480" y2="450"/><line x1="0" y1="480" x2="480" y2="480"/>
      <line x1="0" y1="0" x2="0" y2="480"/><line x1="30" y1="0" x2="30" y2="480"/><line x1="60" y1="0" x2="60" y2="480"/><line x1="90" y1="0" x2="90" y2="480"/><line x1="120" y1="0" x2="120" y2="480"/><line x1="150" y1="0" x2="150" y2="480"/><line x1="180" y1="0" x2="180" y2="480"/><line x1="210" y1="0" x2="210" y2="480"/><line x1="240" y1="0" x2="240" y2="480"/><line x1="270" y1="0" x2="270" y2="480"/><line x1="300" y1="0" x2="300" y2="480"/><line x1="330" y1="0" x2="330" y2="480"/><line x1="360" y1="0" x2="360" y2="480"/><line x1="390" y1="0" x2="390" y2="480"/><line x1="420" y1="0" x2="420" y2="480"/><line x1="450" y1="0" x2="450" y2="480"/><line x1="480" y1="0" x2="480" y2="480"/>
    </g>
    <!-- Star pixel art -->
    <rect x="210" y="30" width="30" height="30" fill="#FBBF24"/>
    <rect x="210" y="60" width="30" height="30" fill="#FBBF24"/>
    <rect x="180" y="90" width="30" height="30" fill="#FBBF24"/>
    <rect x="210" y="90" width="30" height="30" fill="#F59E0B"/>
    <rect x="240" y="90" width="30" height="30" fill="#FBBF24"/>
    <rect x="60" y="120" width="30" height="30" fill="#FBBF24"/>
    <rect x="90" y="120" width="30" height="30" fill="#FBBF24"/>
    <rect x="120" y="120" width="30" height="30" fill="#F59E0B"/>
    <rect x="150" y="120" width="30" height="30" fill="#FBBF24"/>
    <rect x="180" y="120" width="30" height="30" fill="#F59E0B"/>
    <rect x="210" y="120" width="30" height="30" fill="#FBBF24"/>
    <rect x="240" y="120" width="30" height="30" fill="#F59E0B"/>
    <rect x="270" y="120" width="30" height="30" fill="#FBBF24"/>
    <rect x="300" y="120" width="30" height="30" fill="#F59E0B"/>
    <rect x="330" y="120" width="30" height="30" fill="#FBBF24"/>
    <rect x="360" y="120" width="30" height="30" fill="#FBBF24"/>
    <rect x="90" y="150" width="30" height="30" fill="#FBBF24"/>
    <rect x="120" y="150" width="30" height="30" fill="#FBBF24"/>
    <rect x="150" y="150" width="30" height="30" fill="#F59E0B"/>
    <rect x="180" y="150" width="30" height="30" fill="#FBBF24"/>
    <rect x="210" y="150" width="30" height="30" fill="#F59E0B"/>
    <rect x="240" y="150" width="30" height="30" fill="#FBBF24"/>
    <rect x="270" y="150" width="30" height="30" fill="#F59E0B"/>
    <rect x="300" y="150" width="30" height="30" fill="#FBBF24"/>
    <rect x="330" y="150" width="30" height="30" fill="#FBBF24"/>
    <rect x="120" y="180" width="30" height="30" fill="#FBBF24"/>
    <rect x="150" y="180" width="30" height="30" fill="#FBBF24"/>
    <rect x="180" y="180" width="30" height="30" fill="#F59E0B"/>
    <rect x="210" y="180" width="30" height="30" fill="#FBBF24"/>
    <rect x="240" y="180" width="30" height="30" fill="#F59E0B"/>
    <rect x="270" y="180" width="30" height="30" fill="#FBBF24"/>
    <rect x="300" y="180" width="30" height="30" fill="#FBBF24"/>
    <rect x="120" y="210" width="30" height="30" fill="#FBBF24"/>
    <rect x="150" y="210" width="30" height="30" fill="#F59E0B"/>
    <rect x="180" y="210" width="30" height="30" fill="#FBBF24"/>
    <rect x="240" y="210" width="30" height="30" fill="#FBBF24"/>
    <rect x="270" y="210" width="30" height="30" fill="#F59E0B"/>
    <rect x="300" y="210" width="30" height="30" fill="#FBBF24"/>
    <rect x="90" y="240" width="30" height="30" fill="#FBBF24"/>
    <rect x="120" y="240" width="30" height="30" fill="#F59E0B"/>
    <rect x="300" y="240" width="30" height="30" fill="#F59E0B"/>
    <rect x="330" y="240" width="30" height="30" fill="#FBBF24"/>
  </g>
  <!-- Color picker panel on right -->
  <rect x="790" y="68" width="370" height="680" rx="8" fill="#1a1a1a"/>
  <text x="820" y="100" fill="white" font-family="sans-serif" font-size="15" font-weight="600">Color Picker</text>
  <!-- Color gradient square -->
  <defs>
    <linearGradient id="hue" x1="0" y1="0" x2="1" y2="0">
      <stop offset="0%" stop-color="white"/>
      <stop offset="100%" stop-color="#FBBF24"/>
    </linearGradient>
    <linearGradient id="dark" x1="0" y1="0" x2="0" y2="1">
      <stop offset="0%" stop-color="transparent"/>
      <stop offset="100%" stop-color="black"/>
    </linearGradient>
  </defs>
  <rect x="820" y="120" width="310" height="200" rx="4" fill="url(#hue)"/>
  <rect x="820" y="120" width="310" height="200" rx="4" fill="url(#dark)"/>
  <circle cx="1050" cy="180" r="8" fill="none" stroke="white" stroke-width="2"/>
  <!-- Hue slider -->
  <rect x="820" y="340" width="310" height="16" rx="8" fill="#333"/>
  <rect x="820" y="340" width="310" height="16" rx="8" fill="none" stroke="#333" stroke-width="1"/>
  <g>
    <rect x="820" y="340" width="44" height="16" rx="8" fill="#EF4444"/>
    <rect x="855" y="340" width="44" height="16" fill="#F97316"/>
    <rect x="890" y="340" width="44" height="16" fill="#FBBF24"/>
    <rect x="925" y="340" width="44" height="16" fill="#10B981"/>
    <rect x="960" y="340" width="44" height="16" fill="#3B82F6"/>
    <rect x="995" y="340" width="44" height="16" fill="#8B5CF6"/>
    <rect x="1030" y="340" width="44" height="16" fill="#EC4899"/>
    <rect x="1074" y="340" width="56" height="16" rx="8" fill="#EF4444"/>
  </g>
  <circle cx="960" cy="348" r="8" fill="white" stroke="#333" stroke-width="1"/>
  <!-- Values -->
  <text x="820" y="390" fill="#a3a3a3" font-family="sans-serif" font-size="12">HEX</text>
  <rect x="860" y="375" width="120" height="26" rx="4" fill="#252525" stroke="#333" stroke-width="1"/>
  <text x="875" y="393" fill="white" font-family="monospace" font-size="12">#FBBF24</text>
  <text x="820" y="425" fill="#a3a3a3" font-family="sans-serif" font-size="12">R</text>
  <rect x="840" y="410" width="60" height="26" rx="4" fill="#252525" stroke="#333" stroke-width="1"/>
  <text x="855" y="428" fill="white" font-family="monospace" font-size="12">251</text>
  <text x="910" y="425" fill="#a3a3a3" font-family="sans-serif" font-size="12">G</text>
  <rect x="930" y="410" width="60" height="26" rx="4" fill="#252525" stroke="#333" stroke-width="1"/>
  <text x="945" y="428" fill="white" font-family="monospace" font-size="12">191</text>
  <text x="1000" y="425" fill="#a3a3a3" font-family="sans-serif" font-size="12">B</text>
  <rect x="1020" y="410" width="60" height="26" rx="4" fill="#252525" stroke="#333" stroke-width="1"/>
  <text x="1035" y="428" fill="white" font-family="monospace" font-size="12">36</text>
  <!-- Saved colors -->
  <rect x="820" y="460" width="310" height="1" fill="#333"/>
  <text x="820" y="490" fill="white" font-family="sans-serif" font-size="13" font-weight="600">Saved Colors</text>
  <rect x="820" y="505" width="28" height="28" rx="4" fill="#EF4444"/>
  <rect x="855" y="505" width="28" height="28" rx="4" fill="#F97316"/>
  <rect x="890" y="505" width="28" height="28" rx="4" fill="#FBBF24" stroke="#d76542" stroke-width="2"/>
  <rect x="925" y="505" width="28" height="28" rx="4" fill="#FDE68A"/>
  <rect x="960" y="505" width="28" height="28" rx="4" fill="#10B981"/>
  <rect x="995" y="505" width="28" height="28" rx="4" fill="#059669"/>
  <rect x="1030" y="505" width="28" height="28" rx="4" fill="#3B82F6"/>
  <rect x="1065" y="505" width="28" height="28" rx="4" fill="white"/>
  <rect x="820" y="540" width="28" height="28" rx="4" fill="#8B5CF6"/>
  <rect x="855" y="540" width="28" height="28" rx="4" fill="#EC4899"/>
  <rect x="890" y="540" width="28" height="28" rx="4" fill="#555"/>
  <rect x="925" y="540" width="28" height="28" rx="4" fill="#a3a3a3"/>
</svg>