<svg xmlns="http://www.w3.org/2000/svg" viewBox="0 0 1200 800">
  <rect width="1200" height="800" fill="#0A0A0A"/>
  <!-- Top bar -->
  <rect width="1200" height="48" fill="#111111"/>
  <rect x="0" y="48" width="1200" height="1" fill="#333"/>
  <text x="600" y="30" fill="white" font-family="sans-serif" font-size="16" font-weight="bold" text-anchor="middle">PixelForge</text>
  <circle cx="20" cy="24" r="6" fill="#EF4444"/>
  <circle cx="40" cy="24" r="6" fill="#F59E0B"/>
  <circle cx="60" cy="24" r="6" fill="#10B981"/>
  <!-- Tool sidebar -->
  <rect x="0" y="49" width="60" height="751" fill="#111111"/>
  <rect x="60" y="49" width="1" height="751" fill="#333"/>
  <!-- Tool icons -->
  <rect x="14" y="65" width="32" height="32" rx="6" fill="#d76542"/>
  <line x1="25" y1="77" x2="25" y2="90" stroke="white" stroke-width="2"/>
  <line x1="25" y1="90" x2="30" y2="85" stroke="white" stroke-width="2"/>
  <rect x="14" y="105" width="32" height="32" rx="6" fill="#1a1a1a"/>
  <rect x="22" y="113" width="16" height="16" rx="2" fill="none" stroke="#a3a3a3" stroke-width="1.5"/>
  <line x1="26" y1="125" x2="34" y2="117" stroke="#a3a3a3" stroke-width="1.5"/>
  <rect x="14" y="145" width="32" height="32" rx="6" fill="#1a1a1a"/>
  <rect x="24" y="155" width="12" height="12" fill="none" stroke="#a3a3a3" stroke-width="1.5"/>
  <rect x="14" y="185" width="32" height="32" rx="6" fill="#1a1a1a"/>
  <circle cx="30" cy="201" r="7" fill="none" stroke="#a3a3a3" stroke-width="1.5"/>
  <!-- Main pixel grid area -->
  <rect x="80" y="68" width="800" height="600" fill="#111111" rx="4"/>
  <!-- 16x16 pixel grid - heart shape -->
  <!-- Grid background -->
  <g transform="translate(200, 118)">
    <!-- Grid lines -->
    <g stroke="#222" stroke-width="0.5">
      <line x1="0" y1="0" x2="480" y2="0"/><line x1="0" y1="30" x2="480" y2="30"/><line x1="0" y1="60" x2="480" y2="60"/><line x1="0" y1="90" x2="480" y2="90"/><line x1="0" y1="120" x2="480" y2="120"/><line x1="0" y1="150" x2="480" y2="150"/><line x1="0" y1="180" x2="480" y2="180"/><line x1="0" y1="210" x2="480" y2="210"/><line x1="0" y1="240" x2="480" y2="240"/><line x1="0" y1="270" x2="480" y2="270"/><line x1="0" y1="300" x2="480" y2="300"/><line x1="0" y1="330" x2="480" y2="330"/><line x1="0" y1="360" x2="480" y2="360"/><line x1="0" y1="390" x2="480" y2="390"/><line x1="0" y1="420" x2="480" y2="420"/><line x1="0" y1="450" x2="480" y2="450"/><line x1="0" y1="480" x2="480" y2="480"/>
      <line x1="0" y1="0" x2="0" y2="480"/><line x1="30" y1="0" x2="30" y2="480"/><line x1="60" y1="0" x2="60" y2="480"/><line x1="90" y1="0" x2="90" y2="480"/><line x1="120" y1="0" x2="120" y2="480"/><line x1="150" y1="0" x2="150" y2="480"/><line x1="180" y1="0" x2="180" y2="480"/><line x1="210" y1="0" x2="210" y2="480"/><line x1="240" y1="0" x2="240" y2="480"/><line x1="270" y1="0" x2="270" y2="480"/><line x1="300" y1="0" x2="300" y2="480"/><line x1="330" y1="0" x2="330" y2="480"/><line x1="360" y1="0" x2="360" y2="480"/><line x1="390" y1="0" x2="390" y2="480"/><line x1="420" y1="0" x2="420" y2="480"/><line x1="450" y1="0" x2="450" y2="480"/><line x1="480" y1="0" x2="480" y2="480"/>
    </g>
    <!-- Heart pixel art -->
    <!-- Row 3 -->
    <rect x="60" y="60" width="30" height="30" fill="#EF4444"/><rect x="90" y="60" width="30" height="30" fill="#EF4444"/><rect x="120" y="60" width="30" height="30" fill="#EF4444"/><rect x="210" y="60" width="30" height="30" fill="#EF4444"/><rect x="240" y="60" width="30" height="30" fill="#EF4444"/><rect x="270" y="60" width="30" height="30" fill="#EF4444"/>
    <!-- Row 4 -->
    <rect x="30" y="90" width="30" height="30" fill="#EF4444"/><rect x="60" y="90" width="30" height="30" fill="#F87171"/><rect x="90" y="90" width="30" height="30" fill="#EF4444"/><rect x="120" y="90" width="30" height="30" fill="#EF4444"/><rect x="150" y="90" width="30" height="30" fill="#EF4444"/><rect x="180" y="90" width="30" height="30" fill="#EF4444"/><rect x="210" y="90" width="30" height="30" fill="#EF4444"/><rect x="240" y="90" width="30" height="30" fill="#EF4444"/><rect x="270" y="90" width="30" height="30" fill="#EF4444"/><rect x="300" y="90" width="30" height="30" fill="#EF4444"/>
    <!-- Row 5 -->
    <rect x="30" y="120" width="30" height="30" fill="#EF4444"/><rect x="60" y="120" width="30" height="30" fill="#EF4444"/><rect x="90" y="120" width="30" height="30" fill="#EF4444"/><rect x="120" y="120" width="30" height="30" fill="#EF4444"/><rect x="150" y="120" width="30" height="30" fill="#EF4444"/><rect x="180" y="120" width="30" height="30" fill="#EF4444"/><rect x="210" y="120" width="30" height="30" fill="#EF4444"/><rect x="240" y="120" width="30" height="30" fill="#EF4444"/><rect x="270" y="120" width="30" height="30" fill="#EF4444"/><rect x="300" y="120" width="30" height="30" fill="#EF4444"/>
    <!-- Row 6 -->
    <rect x="30" y="150" width="30" height="30" fill="#EF4444"/><rect x="60" y="150" width="30" height="30" fill="#EF4444"/><rect x="90" y="150" width="30" height="30" fill="#EF4444"/><rect x="120" y="150" width="30" height="30" fill="#EF4444"/><rect x="150" y="150" width="30" height="30" fill="#EF4444"/><rect x="180" y="150" width="30" height="30" fill="#EF4444"/><rect x="210" y="150" width="30" height="30" fill="#EF4444"/><rect x="240" y="150" width="30" height="30" fill="#EF4444"/><rect x="270" y="150" width="30" height="30" fill="#EF4444"/><rect x="300" y="150" width="30" height="30" fill="#EF4444"/>
    <!-- Row 7 -->
    <rect x="60" y="180" width="30" height="30" fill="#EF4444"/><rect x="90" y="180" width="30" height="30" fill="#EF4444"/><rect x="120" y="180" width="30" height="30" fill="#EF4444"/><rect x="150" y="180" width="30" height="30" fill="#EF4444"/><rect x="180" y="180" width="30" height="30" fill="#EF4444"/><rect x="210" y="180" width="30" height="30" fill="#EF4444"/><rect x="240" y="180" width="30" height="30" fill="#EF4444"/><rect x="270" y="180" width="30" height="30" fill="#DC2626"/>
    <!-- Row 8 -->
    <rect x="90" y="210" width="30" height="30" fill="#EF4444"/><rect x="120" y="210" width="30" height="30" fill="#EF4444"/><rect x="150" y="210" width="30" height="30" fill="#EF4444"/><rect x="180" y="210" width="30" height="30" fill="#EF4444"/><rect x="210" y="210" width="30" height="30" fill="#DC2626"/><rect x="240" y="210" width="30" height="30" fill="#DC2626"/>
    <!-- Row 9 -->
    <rect x="120" y="240" width="30" height="30" fill="#EF4444"/><rect x="150" y="240" width="30" height="30" fill="#DC2626"/><rect x="180" y="240" width="30" height="30" fill="#DC2626"/><rect x="210" y="240" width="30" height="30" fill="#DC2626"/>
    <!-- Row 10 -->
    <rect x="150" y="270" width="30" height="30" fill="#DC2626"/><rect x="180" y="270" width="30" height="30" fill="#B91C1C"/>
  </g>
  <!-- Color palette bar -->
  <rect x="80" y="690" width="800" height="50" rx="8" fill="#1a1a1a"/>
  <circle cx="115" cy="715" r="15" fill="#EF4444" stroke="#555" stroke-width="2"/>
  <circle cx="155" cy="715" r="15" fill="#F97316"/>
  <circle cx="195" cy="715" r="15" fill="#FBBF24"/>
  <circle cx="235" cy="715" r="15" fill="#10B981"/>
  <circle cx="275" cy="715" r="15" fill="#3B82F6"/>
  <circle cx="315" cy="715" r="15" fill="#8B5CF6"/>
  <circle cx="355" cy="715" r="15" fill="#EC4899"/>
  <circle cx="395" cy="715" r="15" fill="white"/>
  <circle cx="435" cy="715" r="15" fill="#a3a3a3"/>
  <circle cx="475" cy="715" r="15" fill="#555"/>
  <circle cx="515" cy="715" r="15" fill="#1a1a1a" stroke="#555" stroke-width="1"/>
  <circle cx="555" cy="715" r="15" fill="#7DD3FC"/>
  <!-- Active indicator -->
  <circle cx="115" cy="715" r="18" fill="none" stroke="#d76542" stroke-width="2"/>
  <!-- Right panel info -->
  <rect x="900" y="68" width="260" height="600" rx="8" fill="#1a1a1a"/>
  <text x="920" y="95" fill="white" font-family="sans-serif" font-size="14" font-weight="600">Canvas</text>
  <text x="920" y="120" fill="#a3a3a3" font-family="sans-serif" font-size="12">Size: 16 x 16</text>
  <text x="920" y="140" fill="#a3a3a3" font-family="sans-serif" font-size="12">Zoom: 200%</text>
  <rect x="920" y="160" width="220" height="1" fill="#333"/>
  <text x="920" y="185" fill="white" font-family="sans-serif" font-size="14" font-weight="600">Color</text>
  <rect x="920" y="200" width="40" height="40" rx="4" fill="#EF4444"/>
  <text x="970" y="215" fill="#a3a3a3" font-family="sans-serif" font-size="11">#EF4444</text>
  <text x="970" y="232" fill="#666" font-family="sans-serif" font-size="11">R:239 G:68 B:68</text>
  <rect x="920" y="255" width="220" height="1" fill="#333"/>
  <text x="920" y="280" fill="white" font-family="sans-serif" font-size="14" font-weight="600">Layers</text>
  <rect x="920" y="295" width="220" height="32" rx="4" fill="#252525"/>
  <circle cx="935" cy="311" r="5" fill="#10B981"/>
  <text x="950" y="316" fill="white" font-family="sans-serif" font-size="12">Layer 1</text>
  <text x="1120" y="316" fill="#666" font-family="sans-serif" font-size="10" text-anchor="end">100%</text>
</svg>