<svg xmlns="http://www.w3.org/2000/svg" viewBox="0 0 1200 800">
  <rect width="1200" height="800" fill="#0A0A0A"/>
  <rect width="1200" height="48" fill="#111111"/>
  <rect x="0" y="48" width="1200" height="1" fill="#333"/>
  <circle cx="20" cy="24" r="6" fill="#d76542"/>
  <text x="40" y="30" fill="white" font-family="sans-serif" font-size="16" font-weight="bold">Prompt Sprint</text>
  <text x="1060" y="30" fill="#10B981" font-family="sans-serif" font-size="11">3 runs complete</text>
  <circle cx="1170" cy="24" r="5" fill="#10B981"/>

  <!-- Left pane - Prompt input -->
  <rect x="40" y="70" width="540" height="700" rx="12" fill="#1a1a1a" stroke="#333" stroke-width="1"/>
  <text x="60" y="100" fill="white" font-family="sans-serif" font-size="14" font-weight="600">Prompt Editor</text>
  <rect x="270" y="85" width="60" height="20" rx="4" fill="#2a2a2a"/>
  <text x="300" y="99" fill="#a3a3a3" font-family="sans-serif" font-size="9" text-anchor="middle">v1.3</text>
  <text x="550" y="100" fill="#a3a3a3" font-family="sans-serif" font-size="11" text-anchor="end">GPT-4o</text>

  <!-- System prompt -->
  <rect x="60" y="115" width="500" height="30" rx="4" fill="#0A0A0A" stroke="#333" stroke-width="1"/>
  <text x="75" y="134" fill="#d76542" font-family="sans-serif" font-size="11" font-weight="500">System</text>
  <text x="125" y="134" fill="#a3a3a3" font-family="sans-serif" font-size="11">You are a helpful code reviewer...</text>

  <!-- User prompt -->
  <rect x="60" y="155" width="500" height="180" rx="8" fill="#0A0A0A" stroke="#d76542" stroke-width="1"/>
  <text x="75" y="178" fill="#d76542" font-family="sans-serif" font-size="11" font-weight="500">User Prompt</text>
  <text x="75" y="200" fill="white" font-family="monospace" font-size="11">Review the following Python code for:</text>
  <text x="75" y="218" fill="white" font-family="monospace" font-size="11">1. Security vulnerabilities</text>
  <text x="75" y="236" fill="white" font-family="monospace" font-size="11">2. Performance issues</text>
  <text x="75" y="254" fill="white" font-family="monospace" font-size="11">3. Best practice violations</text>
  <text x="75" y="278" fill="#a3a3a3" font-family="monospace" font-size="11">```python</text>
  <text x="75" y="296" fill="#a3a3a3" font-family="monospace" font-size="11">def get_user(id):</text>
  <text x="75" y="314" fill="#a3a3a3" font-family="monospace" font-size="11">    query = f"SELECT * FROM users</text>
  <text x="75" y="326" fill="#a3a3a3" font-family="monospace" font-size="11">    WHERE id={id}"</text>

  <!-- Variables section -->
  <rect x="60" y="350" width="500" height="100" rx="8" fill="#0A0A0A" stroke="#333" stroke-width="1"/>
  <text x="75" y="373" fill="#8B5CF6" font-family="sans-serif" font-size="11" font-weight="500">Variables</text>
  <text x="75" y="395" fill="#a3a3a3" font-family="sans-serif" font-size="11">{{language}} = </text>
  <text x="185" y="395" fill="white" font-family="sans-serif" font-size="11">Python</text>
  <text x="75" y="415" fill="#a3a3a3" font-family="sans-serif" font-size="11">{{severity}} = </text>
  <text x="185" y="415" fill="white" font-family="sans-serif" font-size="11">High, Medium, Low</text>
  <text x="75" y="435" fill="#a3a3a3" font-family="sans-serif" font-size="11">{{format}} = </text>
  <text x="185" y="435" fill="white" font-family="sans-serif" font-size="11">JSON</text>

  <!-- Model config -->
  <rect x="60" y="465" width="500" height="80" rx="8" fill="#0A0A0A" stroke="#333" stroke-width="1"/>
  <text x="75" y="488" fill="#a3a3a3" font-family="sans-serif" font-size="11" font-weight="500">Configuration</text>
  <text x="75" y="510" fill="#555" font-family="sans-serif" font-size="10">Temperature:</text>
  <rect x="155" y="500" width="120" height="8" rx="4" fill="#2a2a2a"/>
  <rect x="155" y="500" width="30" height="8" rx="4" fill="#d76542"/>
  <text x="285" y="510" fill="white" font-family="sans-serif" font-size="10">0.2</text>
  <text x="75" y="530" fill="#555" font-family="sans-serif" font-size="10">Max tokens:</text>
  <text x="155" y="530" fill="white" font-family="sans-serif" font-size="10">2048</text>
  <text x="250" y="530" fill="#555" font-family="sans-serif" font-size="10">Top P:</text>
  <text x="290" y="530" fill="white" font-family="sans-serif" font-size="10">0.95</text>

  <!-- Execute button -->
  <rect x="60" y="560" width="500" height="40" rx="8" fill="#d76542"/>
  <text x="310" y="585" fill="white" font-family="sans-serif" font-size="14" font-weight="600" text-anchor="middle">Execute 3 Runs</text>

  <!-- Run history -->
  <text x="60" y="630" fill="white" font-family="sans-serif" font-size="12" font-weight="500">Run History</text>
  <rect x="60" y="640" width="160" height="30" rx="4" fill="#0A0A0A" stroke="#10B981" stroke-width="1"/>
  <text x="140" y="660" fill="#10B981" font-family="sans-serif" font-size="10" text-anchor="middle">Run 1 - 1.2s - 847 tok</text>
  <rect x="230" y="640" width="160" height="30" rx="4" fill="#0A0A0A" stroke="#10B981" stroke-width="1"/>
  <text x="310" y="660" fill="#10B981" font-family="sans-serif" font-size="10" text-anchor="middle">Run 2 - 1.4s - 912 tok</text>
  <rect x="400" y="640" width="160" height="30" rx="4" fill="#0A0A0A" stroke="#10B981" stroke-width="1"/>
  <text x="480" y="660" fill="#10B981" font-family="sans-serif" font-size="10" text-anchor="middle">Run 3 - 1.1s - 803 tok</text>

  <!-- Cost -->
  <text x="60" y="705" fill="#a3a3a3" font-family="sans-serif" font-size="11">Total cost: $0.0042</text>
  <text x="60" y="725" fill="#a3a3a3" font-family="sans-serif" font-size="11">Avg latency: 1.23s</text>
  <text x="60" y="745" fill="#a3a3a3" font-family="sans-serif" font-size="11">Consistency score: 87%</text>

  <!-- Right pane - Results comparison -->
  <rect x="600" y="70" width="560" height="700" rx="12" fill="#1a1a1a" stroke="#333" stroke-width="1"/>
  <!-- Tabs -->
  <rect x="620" y="85" width="65" height="26" rx="4" fill="#d76542"/>
  <text x="652" y="102" fill="white" font-family="sans-serif" font-size="11" text-anchor="middle">Run 1</text>
  <rect x="695" y="85" width="65" height="26" rx="4" fill="#2a2a2a"/>
  <text x="727" y="102" fill="#a3a3a3" font-family="sans-serif" font-size="11" text-anchor="middle">Run 2</text>
  <rect x="770" y="85" width="65" height="26" rx="4" fill="#2a2a2a"/>
  <text x="802" y="102" fill="#a3a3a3" font-family="sans-serif" font-size="11" text-anchor="middle">Run 3</text>
  <rect x="860" y="85" width="65" height="26" rx="4" fill="#2a2a2a" stroke="#d76542" stroke-width="1"/>
  <text x="892" y="102" fill="#d76542" font-family="sans-serif" font-size="11" text-anchor="middle">Diff</text>

  <text x="620" y="138" fill="white" font-family="sans-serif" font-size="13" font-weight="600">Output - Run 1</text>
  <text x="1130" y="138" fill="#10B981" font-family="sans-serif" font-size="10" text-anchor="end">847 tokens - 1.2s</text>

  <!-- JSON output -->
  <rect x="620" y="150" width="520" height="420" rx="8" fill="#0A0A0A" stroke="#333" stroke-width="1"/>
  <text x="635" y="172" fill="#d76542" font-family="monospace" font-size="11">{</text>
  <text x="645" y="192" fill="#3B82F6" font-family="monospace" font-size="11">"vulnerabilities"</text>
  <text x="785" y="192" fill="white" font-family="monospace" font-size="11">: [</text>
  <text x="655" y="212" fill="white" font-family="monospace" font-size="11">{</text>
  <text x="665" y="232" fill="#3B82F6" font-family="monospace" font-size="11">"type"</text>
  <text x="715" y="232" fill="white" font-family="monospace" font-size="11">: </text>
  <text x="725" y="232" fill="#10B981" font-family="monospace" font-size="11">"SQL Injection"</text>
  <text x="850" y="232" fill="white" font-family="monospace" font-size="11">,</text>
  <text x="665" y="252" fill="#3B82F6" font-family="monospace" font-size="11">"severity"</text>
  <text x="745" y="252" fill="white" font-family="monospace" font-size="11">: </text>
  <text x="755" y="252" fill="#EF4444" font-family="monospace" font-size="11">"High"</text>
  <text x="795" y="252" fill="white" font-family="monospace" font-size="11">,</text>
  <text x="665" y="272" fill="#3B82F6" font-family="monospace" font-size="11">"line"</text>
  <text x="710" y="272" fill="white" font-family="monospace" font-size="11">: </text>
  <text x="720" y="272" fill="#F59E0B" font-family="monospace" font-size="11">2</text>
  <text x="730" y="272" fill="white" font-family="monospace" font-size="11">,</text>
  <text x="665" y="292" fill="#3B82F6" font-family="monospace" font-size="11">"description"</text>
  <text x="775" y="292" fill="white" font-family="monospace" font-size="11">:</text>

  <!-- Highlighted diff line -->
  <rect x="620" y="298" width="520" height="20" fill="#d76542" opacity="0.1"/>
  <text x="675" y="312" fill="#10B981" font-family="monospace" font-size="11">"f-string in SQL query allows</text>
  <text x="675" y="332" fill="#10B981" font-family="monospace" font-size="11"> injection attacks"</text>

  <text x="665" y="355" fill="#3B82F6" font-family="monospace" font-size="11">"fix"</text>
  <text x="695" y="355" fill="white" font-family="monospace" font-size="11">:</text>
  <text x="675" y="375" fill="#10B981" font-family="monospace" font-size="11">"Use parameterized queries"</text>
  <text x="655" y="395" fill="white" font-family="monospace" font-size="11">},</text>
  <text x="655" y="415" fill="white" font-family="monospace" font-size="11">{</text>
  <text x="665" y="435" fill="#3B82F6" font-family="monospace" font-size="11">"type"</text>
  <text x="715" y="435" fill="white" font-family="monospace" font-size="11">: </text>
  <text x="725" y="435" fill="#10B981" font-family="monospace" font-size="11">"No input validation"</text>
  <text x="880" y="435" fill="white" font-family="monospace" font-size="11">,</text>
  <text x="665" y="455" fill="#3B82F6" font-family="monospace" font-size="11">"severity"</text>
  <text x="745" y="455" fill="white" font-family="monospace" font-size="11">: </text>
  <text x="755" y="455" fill="#F59E0B" font-family="monospace" font-size="11">"Medium"</text>
  <text x="635" y="545" fill="#a3a3a3" font-family="monospace" font-size="11">...</text>

  <!-- Consistency analysis -->
  <rect x="620" y="580" width="520" height="80" rx="8" fill="#0A0A0A" stroke="#333" stroke-width="1"/>
  <text x="640" y="605" fill="white" font-family="sans-serif" font-size="12" font-weight="500">Consistency Analysis</text>
  <text x="640" y="625" fill="#10B981" font-family="sans-serif" font-size="11">All 3 runs identified SQL injection (100%)</text>
  <text x="640" y="645" fill="#F59E0B" font-family="sans-serif" font-size="11">2/3 runs flagged input validation (67%)</text>

  <!-- Action buttons -->
  <rect x="620" y="675" width="120" height="30" rx="6" fill="#d76542"/>
  <text x="680" y="694" fill="white" font-family="sans-serif" font-size="11" text-anchor="middle">Save Prompt</text>
  <rect x="750" y="675" width="120" height="30" rx="6" fill="#2a2a2a" stroke="#333" stroke-width="1"/>
  <text x="810" y="694" fill="#a3a3a3" font-family="sans-serif" font-size="11" text-anchor="middle">Export JSON</text>
  <rect x="880" y="675" width="120" height="30" rx="6" fill="#2a2a2a" stroke="#333" stroke-width="1"/>
  <text x="940" y="694" fill="#a3a3a3" font-family="sans-serif" font-size="11" text-anchor="middle">Share</text>
</svg>