<svg xmlns="http://www.w3.org/2000/svg" viewBox="0 0 1200 800">
  <rect width="1200" height="800" fill="#0A0A0A"/>
  <rect width="1200" height="48" fill="#111111"/>
  <rect x="0" y="48" width="1200" height="1" fill="#333"/>
  <circle cx="20" cy="24" r="6" fill="#d76542"/>
  <text x="40" y="30" fill="white" font-family="sans-serif" font-size="16" font-weight="bold">Quiet Quarry</text>
  <text x="1080" y="30" fill="#10B981" font-family="sans-serif" font-size="11">Session Active</text>
  <circle cx="1160" cy="24" r="5" fill="#10B981"/>

  <!-- Main timer area -->
  <rect x="40" y="70" width="720" height="500" rx="12" fill="#1a1a1a" stroke="#333" stroke-width="1"/>

  <!-- Focus/Break toggle -->
  <rect x="280" y="95" width="200" height="36" rx="18" fill="#0A0A0A" stroke="#333" stroke-width="1"/>
  <rect x="282" y="97" width="98" height="32" rx="16" fill="#d76542"/>
  <text x="331" y="117" fill="white" font-family="sans-serif" font-size="12" font-weight="500" text-anchor="middle">Focus</text>
  <text x="429" y="117" fill="#a3a3a3" font-family="sans-serif" font-size="12" text-anchor="middle">Break</text>

  <!-- Large circular timer -->
  <circle cx="400" cy="310" r="150" fill="none" stroke="#2a2a2a" stroke-width="8"/>
  <circle cx="400" cy="310" r="150" fill="none" stroke="#d76542" stroke-width="8" stroke-dasharray="565" stroke-dashoffset="141" stroke-linecap="round" transform="rotate(-90 400 310)"/>
  <circle cx="400" cy="310" r="130" fill="#0A0A0A" opacity="0.5"/>

  <text x="400" y="285" fill="white" font-family="sans-serif" font-size="56" font-weight="bold" text-anchor="middle">18:42</text>
  <text x="400" y="315" fill="#a3a3a3" font-family="sans-serif" font-size="14" text-anchor="middle">remaining</text>
  <text x="400" y="345" fill="#d76542" font-family="sans-serif" font-size="12" text-anchor="middle">Session 3 of 4</text>

  <!-- Control buttons -->
  <rect x="300" y="490" width="80" height="36" rx="8" fill="#2a2a2a" stroke="#333" stroke-width="1"/>
  <text x="340" y="512" fill="#a3a3a3" font-family="sans-serif" font-size="12" text-anchor="middle">Reset</text>
  <rect x="390" y="490" width="80" height="36" rx="8" fill="#d76542"/>
  <text x="430" y="512" fill="white" font-family="sans-serif" font-size="12" font-weight="500" text-anchor="middle">Pause</text>
  <rect x="480" y="490" width="80" height="36" rx="8" fill="#2a2a2a" stroke="#333" stroke-width="1"/>
  <text x="520" y="512" fill="#a3a3a3" font-family="sans-serif" font-size="12" text-anchor="middle">Skip</text>

  <!-- Session dots -->
  <circle cx="355" cy="465" r="6" fill="#10B981"/>
  <circle cx="380" cy="465" r="6" fill="#10B981"/>
  <circle cx="405" cy="465" r="6" fill="#d76542" stroke="#d76542" stroke-width="2"/>
  <circle cx="430" cy="465" r="6" fill="none" stroke="#333" stroke-width="1.5"/>

  <!-- Right panel - Noise meter -->
  <rect x="780" y="70" width="380" height="240" rx="12" fill="#1a1a1a" stroke="#333" stroke-width="1"/>
  <text x="800" y="100" fill="white" font-family="sans-serif" font-size="14" font-weight="600">Noise Level</text>
  <text x="1130" y="100" fill="#a3a3a3" font-family="sans-serif" font-size="11" text-anchor="end">Live</text>
  <circle cx="1140" cy="96" r="4" fill="#10B981"/>

  <!-- Noise meter bars -->
  <rect x="800" y="120" width="20" height="100" rx="4" fill="#2a2a2a"/>
  <rect x="800" y="170" width="20" height="50" rx="4" fill="#10B981"/>
  <rect x="830" y="120" width="20" height="100" rx="4" fill="#2a2a2a"/>
  <rect x="830" y="165" width="20" height="55" rx="4" fill="#10B981"/>
  <rect x="860" y="120" width="20" height="100" rx="4" fill="#2a2a2a"/>
  <rect x="860" y="175" width="20" height="45" rx="4" fill="#10B981"/>
  <rect x="890" y="120" width="20" height="100" rx="4" fill="#2a2a2a"/>
  <rect x="890" y="160" width="20" height="60" rx="4" fill="#10B981"/>
  <rect x="920" y="120" width="20" height="100" rx="4" fill="#2a2a2a"/>
  <rect x="920" y="155" width="20" height="65" rx="4" fill="#F59E0B"/>
  <rect x="950" y="120" width="20" height="100" rx="4" fill="#2a2a2a"/>
  <rect x="950" y="140" width="20" height="80" rx="4" fill="#F59E0B"/>
  <rect x="980" y="120" width="20" height="100" rx="4" fill="#2a2a2a"/>
  <rect x="980" y="130" width="20" height="90" rx="4" fill="#d76542"/>
  <rect x="1010" y="120" width="20" height="100" rx="4" fill="#2a2a2a"/>
  <rect x="1010" y="150" width="20" height="70" rx="4" fill="#F59E0B"/>
  <rect x="1040" y="120" width="20" height="100" rx="4" fill="#2a2a2a"/>
  <rect x="1040" y="160" width="20" height="60" rx="4" fill="#10B981"/>
  <rect x="1070" y="120" width="20" height="100" rx="4" fill="#2a2a2a"/>
  <rect x="1070" y="168" width="20" height="52" rx="4" fill="#10B981"/>
  <rect x="1100" y="120" width="20" height="100" rx="4" fill="#2a2a2a"/>
  <rect x="1100" y="172" width="20" height="48" rx="4" fill="#10B981"/>

  <!-- Current level -->
  <text x="800" y="250" fill="white" font-family="sans-serif" font-size="20" font-weight="bold">42 dB</text>
  <text x="890" y="250" fill="#10B981" font-family="sans-serif" font-size="12">Quiet</text>
  <text x="800" y="270" fill="#a3a3a3" font-family="sans-serif" font-size="10">Avg this session: 38 dB</text>
  <text x="800" y="290" fill="#a3a3a3" font-family="sans-serif" font-size="10">Peak: 67 dB (2 min ago)</text>

  <!-- Noise thresholds -->
  <rect x="1000" y="240" width="10" height="10" rx="2" fill="#10B981"/>
  <text x="1016" y="250" fill="#555" font-family="sans-serif" font-size="9">0-45 dB</text>
  <rect x="1000" y="258" width="10" height="10" rx="2" fill="#F59E0B"/>
  <text x="1016" y="268" fill="#555" font-family="sans-serif" font-size="9">45-60 dB</text>
  <rect x="1000" y="276" width="10" height="10" rx="2" fill="#d76542"/>
  <text x="1016" y="286" fill="#555" font-family="sans-serif" font-size="9">60+ dB</text>

  <!-- Today's stats -->
  <rect x="780" y="320" width="380" height="250" rx="12" fill="#1a1a1a" stroke="#333" stroke-width="1"/>
  <text x="800" y="350" fill="white" font-family="sans-serif" font-size="14" font-weight="600">Today's Stats</text>

  <rect x="800" y="370" width="165" height="80" rx="8" fill="#0A0A0A"/>
  <text x="820" y="395" fill="#a3a3a3" font-family="sans-serif" font-size="10">Focus Time</text>
  <text x="820" y="425" fill="white" font-family="sans-serif" font-size="24" font-weight="bold">2h 18m</text>
  <text x="820" y="442" fill="#10B981" font-family="sans-serif" font-size="10">+30m vs yesterday</text>

  <rect x="980" y="370" width="165" height="80" rx="8" fill="#0A0A0A"/>
  <text x="1000" y="395" fill="#a3a3a3" font-family="sans-serif" font-size="10">Sessions</text>
  <text x="1000" y="425" fill="white" font-family="sans-serif" font-size="24" font-weight="bold">3/4</text>
  <text x="1000" y="442" fill="#a3a3a3" font-family="sans-serif" font-size="10">1 remaining</text>

  <rect x="800" y="460" width="165" height="80" rx="8" fill="#0A0A0A"/>
  <text x="820" y="485" fill="#a3a3a3" font-family="sans-serif" font-size="10">Avg Noise</text>
  <text x="820" y="515" fill="white" font-family="sans-serif" font-size="24" font-weight="bold">38 dB</text>
  <text x="820" y="532" fill="#10B981" font-family="sans-serif" font-size="10">Quiet environment</text>

  <rect x="980" y="460" width="165" height="80" rx="8" fill="#0A0A0A"/>
  <text x="1000" y="485" fill="#a3a3a3" font-family="sans-serif" font-size="10">Distractions</text>
  <text x="1000" y="515" fill="white" font-family="sans-serif" font-size="24" font-weight="bold">2</text>
  <text x="1000" y="532" fill="#F59E0B" font-family="sans-serif" font-size="10">Noise spikes detected</text>

  <!-- Session history -->
  <rect x="40" y="590" width="1120" height="180" rx="12" fill="#1a1a1a" stroke="#333" stroke-width="1"/>
  <text x="60" y="620" fill="white" font-family="sans-serif" font-size="14" font-weight="600">Session History</text>
  <text x="1130" y="620" fill="#a3a3a3" font-family="sans-serif" font-size="11" text-anchor="end">Today</text>

  <!-- Session bars -->
  <rect x="60" y="640" width="240" height="50" rx="6" fill="#10B981" opacity="0.15" stroke="#10B981" stroke-width="1"/>
  <text x="80" y="660" fill="white" font-family="sans-serif" font-size="11" font-weight="500">Session 1 - Focus</text>
  <text x="80" y="678" fill="#a3a3a3" font-family="sans-serif" font-size="10">9:00 - 9:25 AM | 25 min | 35 dB avg</text>
  <text x="280" y="660" fill="#10B981" font-family="sans-serif" font-size="10" text-anchor="end">Complete</text>

  <rect x="310" y="640" width="80" height="50" rx="6" fill="#3B82F6" opacity="0.1" stroke="#3B82F6" stroke-width="1"/>
  <text x="350" y="660" fill="#3B82F6" font-family="sans-serif" font-size="10" text-anchor="middle">Break</text>
  <text x="350" y="678" fill="#555" font-family="sans-serif" font-size="9" text-anchor="middle">5 min</text>

  <rect x="400" y="640" width="240" height="50" rx="6" fill="#10B981" opacity="0.15" stroke="#10B981" stroke-width="1"/>
  <text x="420" y="660" fill="white" font-family="sans-serif" font-size="11" font-weight="500">Session 2 - Focus</text>
  <text x="420" y="678" fill="#a3a3a3" font-family="sans-serif" font-size="10">9:30 - 9:55 AM | 25 min | 40 dB avg</text>
  <text x="620" y="660" fill="#10B981" font-family="sans-serif" font-size="10" text-anchor="end">Complete</text>

  <rect x="650" y="640" width="80" height="50" rx="6" fill="#3B82F6" opacity="0.1" stroke="#3B82F6" stroke-width="1"/>
  <text x="690" y="660" fill="#3B82F6" font-family="sans-serif" font-size="10" text-anchor="middle">Break</text>
  <text x="690" y="678" fill="#555" font-family="sans-serif" font-size="9" text-anchor="middle">5 min</text>

  <rect x="740" y="640" width="240" height="50" rx="6" fill="#d76542" opacity="0.15" stroke="#d76542" stroke-width="1.5"/>
  <text x="760" y="660" fill="white" font-family="sans-serif" font-size="11" font-weight="500">Session 3 - Focus</text>
  <text x="760" y="678" fill="#a3a3a3" font-family="sans-serif" font-size="10">10:05 AM | 18:42 remaining</text>
  <text x="960" y="660" fill="#d76542" font-family="sans-serif" font-size="10" text-anchor="end">Active</text>

  <!-- Noise timeline -->
  <text x="60" y="720" fill="#a3a3a3" font-family="sans-serif" font-size="10">Noise timeline:</text>
  <polyline points="160,720 250,718 340,715 430,720 520,722 610,719 700,725 790,735 820,730 850,720 900,718 950,715 1000,720 1050,718 1100,722 1130,720" fill="none" stroke="#d76542" stroke-width="1.5" opacity="0.5"/>
  <circle cx="790" cy="735" r="3" fill="#d76542"/>
  <text x="790" y="750" fill="#555" font-family="sans-serif" font-size="8" text-anchor="middle">67dB peak</text>
</svg>