<svg xmlns="http://www.w3.org/2000/svg" viewBox="0 0 1200 800">
  <rect width="1200" height="800" fill="#0A0A0A"/>
  <rect width="1200" height="48" fill="#111111"/>
  <rect x="0" y="48" width="1200" height="1" fill="#333"/>
  <circle cx="20" cy="24" r="6" fill="#d76542"/>
  <text x="40" y="30" fill="white" font-family="sans-serif" font-size="16" font-weight="bold">Quiet Quarry</text>
  <text x="180" y="30" fill="#a3a3a3" font-family="sans-serif" font-size="12">/ Weekly Report</text>

  <!-- Weekly focus chart -->
  <rect x="40" y="70" width="740" height="340" rx="12" fill="#1a1a1a" stroke="#333" stroke-width="1"/>
  <text x="60" y="100" fill="white" font-family="sans-serif" font-size="16" font-weight="600">Focus Time This Week</text>
  <text x="750" y="100" fill="#a3a3a3" font-family="sans-serif" font-size="11" text-anchor="end">Apr 1 - Apr 8</text>

  <!-- Daily bars -->
  <rect x="100" y="140" width="70" height="200" rx="4" fill="#0A0A0A"/>
  <rect x="100" y="200" width="70" height="140" rx="4" fill="#d76542" opacity="0.5"/>
  <text x="135" y="365" fill="#555" font-family="sans-serif" font-size="10" text-anchor="middle">Mon</text>
  <text x="135" y="195" fill="#a3a3a3" font-family="sans-serif" font-size="10" text-anchor="middle">2.3h</text>

  <rect x="190" y="140" width="70" height="200" rx="4" fill="#0A0A0A"/>
  <rect x="190" y="180" width="70" height="160" rx="4" fill="#d76542" opacity="0.6"/>
  <text x="225" y="365" fill="#555" font-family="sans-serif" font-size="10" text-anchor="middle">Tue</text>
  <text x="225" y="175" fill="#a3a3a3" font-family="sans-serif" font-size="10" text-anchor="middle">2.7h</text>

  <rect x="280" y="140" width="70" height="200" rx="4" fill="#0A0A0A"/>
  <rect x="280" y="160" width="70" height="180" rx="4" fill="#d76542" opacity="0.7"/>
  <text x="315" y="365" fill="#555" font-family="sans-serif" font-size="10" text-anchor="middle">Wed</text>
  <text x="315" y="155" fill="#a3a3a3" font-family="sans-serif" font-size="10" text-anchor="middle">3.0h</text>

  <rect x="370" y="140" width="70" height="200" rx="4" fill="#0A0A0A"/>
  <rect x="370" y="190" width="70" height="150" rx="4" fill="#d76542" opacity="0.6"/>
  <text x="405" y="365" fill="#555" font-family="sans-serif" font-size="10" text-anchor="middle">Thu</text>
  <text x="405" y="185" fill="#a3a3a3" font-family="sans-serif" font-size="10" text-anchor="middle">2.5h</text>

  <rect x="460" y="140" width="70" height="200" rx="4" fill="#0A0A0A"/>
  <rect x="460" y="170" width="70" height="170" rx="4" fill="#d76542" opacity="0.8"/>
  <text x="495" y="365" fill="#555" font-family="sans-serif" font-size="10" text-anchor="middle">Fri</text>
  <text x="495" y="165" fill="#a3a3a3" font-family="sans-serif" font-size="10" text-anchor="middle">2.8h</text>

  <rect x="550" y="140" width="70" height="200" rx="4" fill="#0A0A0A"/>
  <rect x="550" y="230" width="70" height="110" rx="4" fill="#d76542" opacity="0.3"/>
  <text x="585" y="365" fill="#555" font-family="sans-serif" font-size="10" text-anchor="middle">Sat</text>
  <text x="585" y="225" fill="#a3a3a3" font-family="sans-serif" font-size="10" text-anchor="middle">1.8h</text>

  <rect x="640" y="140" width="70" height="200" rx="4" fill="#0A0A0A"/>
  <rect x="640" y="210" width="70" height="130" rx="4" fill="#d76542"/>
  <text x="675" y="365" fill="#d76542" font-family="sans-serif" font-size="10" text-anchor="middle" font-weight="bold">Today</text>
  <text x="675" y="205" fill="#d76542" font-family="sans-serif" font-size="10" text-anchor="middle">2.3h</text>

  <!-- Target line -->
  <line x1="80" y1="185" x2="730" y2="185" stroke="#d76542" stroke-width="1" stroke-dasharray="4" opacity="0.5"/>
  <text x="740" y="189" fill="#d76542" font-family="sans-serif" font-size="9" text-anchor="start">Target: 2.5h</text>

  <!-- Summary cards -->
  <rect x="800" y="70" width="360" height="100" rx="12" fill="#1a1a1a" stroke="#333" stroke-width="1"/>
  <text x="820" y="100" fill="#a3a3a3" font-family="sans-serif" font-size="11">Total Focus Time</text>
  <text x="820" y="132" fill="white" font-family="sans-serif" font-size="28" font-weight="bold">17.4h</text>
  <text x="820" y="152" fill="#10B981" font-family="sans-serif" font-size="11">+2.1h vs last week</text>

  <rect x="800" y="180" width="170" height="100" rx="12" fill="#1a1a1a" stroke="#333" stroke-width="1"/>
  <text x="820" y="210" fill="#a3a3a3" font-family="sans-serif" font-size="11">Sessions</text>
  <text x="820" y="240" fill="white" font-family="sans-serif" font-size="24" font-weight="bold">28</text>
  <text x="820" y="260" fill="#a3a3a3" font-family="sans-serif" font-size="10">4 avg/day</text>

  <rect x="990" y="180" width="170" height="100" rx="12" fill="#1a1a1a" stroke="#333" stroke-width="1"/>
  <text x="1010" y="210" fill="#a3a3a3" font-family="sans-serif" font-size="11">Completion</text>
  <text x="1010" y="240" fill="white" font-family="sans-serif" font-size="24" font-weight="bold">89%</text>
  <text x="1010" y="260" fill="#10B981" font-family="sans-serif" font-size="10">+5% vs last week</text>

  <rect x="800" y="290" width="360" height="120" rx="12" fill="#1a1a1a" stroke="#333" stroke-width="1"/>
  <text x="820" y="320" fill="white" font-family="sans-serif" font-size="14" font-weight="600">Noise Summary</text>
  <text x="820" y="345" fill="#a3a3a3" font-family="sans-serif" font-size="11">Weekly avg: 36 dB (Quiet)</text>
  <text x="820" y="365" fill="#a3a3a3" font-family="sans-serif" font-size="11">Quietest day: Monday (32 dB)</text>
  <text x="820" y="385" fill="#a3a3a3" font-family="sans-serif" font-size="11">Noisiest day: Friday (45 dB)</text>
  <text x="820" y="400" fill="#555" font-family="sans-serif" font-size="10">12 noise spikes detected</text>

  <!-- Noise heatmap -->
  <rect x="40" y="430" width="1120" height="340" rx="12" fill="#1a1a1a" stroke="#333" stroke-width="1"/>
  <text x="60" y="460" fill="white" font-family="sans-serif" font-size="14" font-weight="600">Noise Heatmap - Hourly Average</text>
  <text x="1130" y="460" fill="#a3a3a3" font-family="sans-serif" font-size="11" text-anchor="end">This week</text>

  <!-- Hours header -->
  <text x="160" y="490" fill="#555" font-family="sans-serif" font-size="9" text-anchor="middle">8am</text>
  <text x="230" y="490" fill="#555" font-family="sans-serif" font-size="9" text-anchor="middle">9am</text>
  <text x="300" y="490" fill="#555" font-family="sans-serif" font-size="9" text-anchor="middle">10am</text>
  <text x="370" y="490" fill="#555" font-family="sans-serif" font-size="9" text-anchor="middle">11am</text>
  <text x="440" y="490" fill="#555" font-family="sans-serif" font-size="9" text-anchor="middle">12pm</text>
  <text x="510" y="490" fill="#555" font-family="sans-serif" font-size="9" text-anchor="middle">1pm</text>
  <text x="580" y="490" fill="#555" font-family="sans-serif" font-size="9" text-anchor="middle">2pm</text>
  <text x="650" y="490" fill="#555" font-family="sans-serif" font-size="9" text-anchor="middle">3pm</text>
  <text x="720" y="490" fill="#555" font-family="sans-serif" font-size="9" text-anchor="middle">4pm</text>
  <text x="790" y="490" fill="#555" font-family="sans-serif" font-size="9" text-anchor="middle">5pm</text>
  <text x="860" y="490" fill="#555" font-family="sans-serif" font-size="9" text-anchor="middle">6pm</text>

  <!-- Mon row -->
  <text x="80" y="518" fill="#a3a3a3" font-family="sans-serif" font-size="10" text-anchor="middle">Mon</text>
  <rect x="130" y="500" width="60" height="24" rx="4" fill="#10B981" opacity="0.2"/>
  <rect x="200" y="500" width="60" height="24" rx="4" fill="#10B981" opacity="0.25"/>
  <rect x="270" y="500" width="60" height="24" rx="4" fill="#10B981" opacity="0.2"/>
  <rect x="340" y="500" width="60" height="24" rx="4" fill="#10B981" opacity="0.15"/>
  <rect x="410" y="500" width="60" height="24" rx="4" fill="#F59E0B" opacity="0.3"/>
  <rect x="480" y="500" width="60" height="24" rx="4" fill="#10B981" opacity="0.2"/>
  <rect x="550" y="500" width="60" height="24" rx="4" fill="#10B981" opacity="0.15"/>
  <rect x="620" y="500" width="60" height="24" rx="4" fill="#10B981" opacity="0.2"/>
  <rect x="690" y="500" width="60" height="24" rx="4" fill="#10B981" opacity="0.25"/>
  <rect x="760" y="500" width="60" height="24" rx="4" fill="#10B981" opacity="0.2"/>
  <rect x="830" y="500" width="60" height="24" rx="4" fill="#10B981" opacity="0.1"/>

  <!-- Tue row -->
  <text x="80" y="548" fill="#a3a3a3" font-family="sans-serif" font-size="10" text-anchor="middle">Tue</text>
  <rect x="130" y="530" width="60" height="24" rx="4" fill="#10B981" opacity="0.2"/>
  <rect x="200" y="530" width="60" height="24" rx="4" fill="#10B981" opacity="0.2"/>
  <rect x="270" y="530" width="60" height="24" rx="4" fill="#F59E0B" opacity="0.25"/>
  <rect x="340" y="530" width="60" height="24" rx="4" fill="#10B981" opacity="0.15"/>
  <rect x="410" y="530" width="60" height="24" rx="4" fill="#10B981" opacity="0.2"/>
  <rect x="480" y="530" width="60" height="24" rx="4" fill="#10B981" opacity="0.2"/>
  <rect x="550" y="530" width="60" height="24" rx="4" fill="#F59E0B" opacity="0.3"/>
  <rect x="620" y="530" width="60" height="24" rx="4" fill="#10B981" opacity="0.2"/>
  <rect x="690" y="530" width="60" height="24" rx="4" fill="#10B981" opacity="0.15"/>
  <rect x="760" y="530" width="60" height="24" rx="4" fill="#10B981" opacity="0.2"/>
  <rect x="830" y="530" width="60" height="24" rx="4" fill="#10B981" opacity="0.15"/>

  <!-- Wed row -->
  <text x="80" y="578" fill="#a3a3a3" font-family="sans-serif" font-size="10" text-anchor="middle">Wed</text>
  <rect x="130" y="560" width="60" height="24" rx="4" fill="#10B981" opacity="0.15"/>
  <rect x="200" y="560" width="60" height="24" rx="4" fill="#10B981" opacity="0.2"/>
  <rect x="270" y="560" width="60" height="24" rx="4" fill="#10B981" opacity="0.2"/>
  <rect x="340" y="560" width="60" height="24" rx="4" fill="#10B981" opacity="0.2"/>
  <rect x="410" y="560" width="60" height="24" rx="4" fill="#10B981" opacity="0.15"/>
  <rect x="480" y="560" width="60" height="24" rx="4" fill="#10B981" opacity="0.2"/>
  <rect x="550" y="560" width="60" height="24" rx="4" fill="#10B981" opacity="0.15"/>
  <rect x="620" y="560" width="60" height="24" rx="4" fill="#10B981" opacity="0.2"/>
  <rect x="690" y="560" width="60" height="24" rx="4" fill="#F59E0B" opacity="0.25"/>
  <rect x="760" y="560" width="60" height="24" rx="4" fill="#10B981" opacity="0.2"/>
  <rect x="830" y="560" width="60" height="24" rx="4" fill="#10B981" opacity="0.1"/>

  <!-- Thu row -->
  <text x="80" y="608" fill="#a3a3a3" font-family="sans-serif" font-size="10" text-anchor="middle">Thu</text>
  <rect x="130" y="590" width="60" height="24" rx="4" fill="#10B981" opacity="0.2"/>
  <rect x="200" y="590" width="60" height="24" rx="4" fill="#F59E0B" opacity="0.3"/>
  <rect x="270" y="590" width="60" height="24" rx="4" fill="#F59E0B" opacity="0.25"/>
  <rect x="340" y="590" width="60" height="24" rx="4" fill="#10B981" opacity="0.2"/>
  <rect x="410" y="590" width="60" height="24" rx="4" fill="#d76542" opacity="0.35"/>
  <rect x="480" y="590" width="60" height="24" rx="4" fill="#F59E0B" opacity="0.3"/>
  <rect x="550" y="590" width="60" height="24" rx="4" fill="#10B981" opacity="0.2"/>
  <rect x="620" y="590" width="60" height="24" rx="4" fill="#10B981" opacity="0.15"/>
  <rect x="690" y="590" width="60" height="24" rx="4" fill="#10B981" opacity="0.2"/>
  <rect x="760" y="590" width="60" height="24" rx="4" fill="#10B981" opacity="0.2"/>
  <rect x="830" y="590" width="60" height="24" rx="4" fill="#10B981" opacity="0.15"/>

  <!-- Fri row -->
  <text x="80" y="638" fill="#d76542" font-family="sans-serif" font-size="10" text-anchor="middle" font-weight="bold">Fri</text>
  <rect x="130" y="620" width="60" height="24" rx="4" fill="#10B981" opacity="0.2"/>
  <rect x="200" y="620" width="60" height="24" rx="4" fill="#10B981" opacity="0.2"/>
  <rect x="270" y="620" width="60" height="24" rx="4" fill="#F59E0B" opacity="0.3"/>
  <rect x="340" y="620" width="60" height="24" rx="4" fill="#d76542" opacity="0.35"/>
  <rect x="410" y="620" width="60" height="24" rx="4" fill="#F59E0B" opacity="0.25"/>
  <rect x="480" y="620" width="60" height="24" rx="4" fill="#10B981" opacity="0.2"/>

  <!-- Legend -->
  <rect x="60" y="680" width="20" height="14" rx="3" fill="#10B981" opacity="0.2"/>
  <text x="86" y="691" fill="#555" font-family="sans-serif" font-size="9">Quiet (&lt;40dB)</text>
  <rect x="180" y="680" width="20" height="14" rx="3" fill="#F59E0B" opacity="0.3"/>
  <text x="206" y="691" fill="#555" font-family="sans-serif" font-size="9">Moderate (40-55dB)</text>
  <rect x="330" y="680" width="20" height="14" rx="3" fill="#d76542" opacity="0.35"/>
  <text x="356" y="691" fill="#555" font-family="sans-serif" font-size="9">Noisy (&gt;55dB)</text>

  <!-- Insight -->
  <rect x="600" y="670" width="540" height="80" rx="8" fill="#0A0A0A" stroke="#d76542" stroke-width="1"/>
  <text x="620" y="695" fill="#d76542" font-family="sans-serif" font-size="12" font-weight="500">AI Insight</text>
  <text x="620" y="715" fill="#a3a3a3" font-family="sans-serif" font-size="11">Your quietest focus hours are 8-9am. Thursday lunch was</text>
  <text x="620" y="733" fill="#a3a3a3" font-family="sans-serif" font-size="11">consistently noisy - consider shifting sessions earlier.</text>
</svg>