<svg xmlns="http://www.w3.org/2000/svg" viewBox="0 0 1200 800">
  <rect width="1200" height="800" fill="#0A0A0A"/>
  <rect width="1200" height="48" fill="#111111"/>
  <rect x="0" y="48" width="1200" height="1" fill="#333"/>
  <circle cx="20" cy="24" r="6" fill="#d76542"/>
  <text x="40" y="30" fill="white" font-family="sans-serif" font-size="16" font-weight="bold">Shipyard Notes</text>
  <text x="180" y="30" fill="#a3a3a3" font-family="sans-serif" font-size="12">/ AI Generator</text>

  <!-- Commit list to release note generator -->
  <rect x="40" y="70" width="560" height="700" rx="12" fill="#1a1a1a" stroke="#333" stroke-width="1"/>
  <text x="60" y="100" fill="white" font-family="sans-serif" font-size="16" font-weight="600">Commit History</text>
  <text x="570" y="100" fill="#a3a3a3" font-family="sans-serif" font-size="11" text-anchor="end">v2.3.1...HEAD (23 commits)</text>

  <!-- Commit entries -->
  <rect x="60" y="120" width="520" height="40" rx="6" fill="#0A0A0A" stroke="#10B981" stroke-width="1"/>
  <rect x="68" y="128" width="14" height="14" rx="3" fill="#10B981"/>
  <text x="64" y="140" fill="white" font-family="sans-serif" font-size="9" text-anchor="middle">&#x2713;</text>
  <text x="92" y="138" fill="#d76542" font-family="monospace" font-size="10">abc1234</text>
  <text x="160" y="138" fill="white" font-family="sans-serif" font-size="11">feat: add AI release note generation</text>
  <text x="560" y="138" fill="#555" font-family="sans-serif" font-size="10" text-anchor="end">2h ago</text>
  <text x="92" y="152" fill="#10B981" font-family="sans-serif" font-size="9">Categorized: Feature</text>

  <rect x="60" y="168" width="520" height="40" rx="6" fill="#0A0A0A" stroke="#10B981" stroke-width="1"/>
  <rect x="68" y="176" width="14" height="14" rx="3" fill="#10B981"/>
  <text x="92" y="186" fill="#d76542" font-family="monospace" font-size="10">bcd2345</text>
  <text x="160" y="186" fill="white" font-family="sans-serif" font-size="11">feat: multi-project support</text>
  <text x="560" y="186" fill="#555" font-family="sans-serif" font-size="10" text-anchor="end">5h ago</text>
  <text x="92" y="200" fill="#10B981" font-family="sans-serif" font-size="9">Categorized: Feature</text>

  <rect x="60" y="216" width="520" height="40" rx="6" fill="#0A0A0A" stroke="#10B981" stroke-width="1"/>
  <rect x="68" y="224" width="14" height="14" rx="3" fill="#10B981"/>
  <text x="92" y="234" fill="#d76542" font-family="monospace" font-size="10">cde3456</text>
  <text x="160" y="234" fill="white" font-family="sans-serif" font-size="11">feat: embeddable changelog widget</text>
  <text x="560" y="234" fill="#555" font-family="sans-serif" font-size="10" text-anchor="end">1d ago</text>
  <text x="92" y="248" fill="#10B981" font-family="sans-serif" font-size="9">Categorized: Feature</text>

  <rect x="60" y="264" width="520" height="40" rx="6" fill="#0A0A0A" stroke="#3B82F6" stroke-width="1"/>
  <rect x="68" y="272" width="14" height="14" rx="3" fill="#3B82F6"/>
  <text x="92" y="282" fill="#d76542" font-family="monospace" font-size="10">def4567</text>
  <text x="160" y="282" fill="white" font-family="sans-serif" font-size="11">fix: markdown code block rendering</text>
  <text x="560" y="282" fill="#555" font-family="sans-serif" font-size="10" text-anchor="end">1d ago</text>
  <text x="92" y="296" fill="#3B82F6" font-family="sans-serif" font-size="9">Categorized: Fix</text>

  <rect x="60" y="312" width="520" height="40" rx="6" fill="#0A0A0A" stroke="#3B82F6" stroke-width="1"/>
  <rect x="68" y="320" width="14" height="14" rx="3" fill="#3B82F6"/>
  <text x="92" y="330" fill="#d76542" font-family="monospace" font-size="10">efg5678</text>
  <text x="160" y="330" fill="white" font-family="sans-serif" font-size="11">fix: timezone date parsing issue</text>
  <text x="560" y="330" fill="#555" font-family="sans-serif" font-size="10" text-anchor="end">2d ago</text>
  <text x="92" y="344" fill="#3B82F6" font-family="sans-serif" font-size="9">Categorized: Fix</text>

  <rect x="60" y="360" width="520" height="40" rx="6" fill="#0A0A0A" stroke="#8B5CF6" stroke-width="1"/>
  <rect x="68" y="368" width="14" height="14" rx="3" fill="#8B5CF6"/>
  <text x="92" y="378" fill="#d76542" font-family="monospace" font-size="10">fgh6789</text>
  <text x="160" y="378" fill="white" font-family="sans-serif" font-size="11">docs: update API reference</text>
  <text x="560" y="378" fill="#555" font-family="sans-serif" font-size="10" text-anchor="end">2d ago</text>
  <text x="92" y="392" fill="#8B5CF6" font-family="sans-serif" font-size="9">Categorized: Docs</text>

  <rect x="60" y="408" width="520" height="40" rx="6" fill="#0A0A0A" stroke="#555" stroke-width="1"/>
  <rect x="68" y="416" width="14" height="14" rx="3" fill="none" stroke="#555" stroke-width="1"/>
  <text x="92" y="426" fill="#d76542" font-family="monospace" font-size="10">ghi7890</text>
  <text x="160" y="426" fill="white" font-family="sans-serif" font-size="11">chore: update dependencies</text>
  <text x="560" y="426" fill="#555" font-family="sans-serif" font-size="10" text-anchor="end">3d ago</text>
  <text x="92" y="440" fill="#555" font-family="sans-serif" font-size="9">Excluded from notes</text>

  <text x="60" y="475" fill="#555" font-family="sans-serif" font-size="11">+16 more commits (12 included, 4 excluded)</text>

  <!-- AI categorization panel -->
  <rect x="60" y="500" width="520" height="120" rx="8" fill="#0A0A0A" stroke="#d76542" stroke-width="1"/>
  <text x="80" y="525" fill="#d76542" font-family="sans-serif" font-size="12" font-weight="500">AI Categorization</text>
  <text x="80" y="550" fill="#a3a3a3" font-family="sans-serif" font-size="11">Analyzed 23 commits using conventional commit patterns</text>
  <text x="80" y="570" fill="#a3a3a3" font-family="sans-serif" font-size="11">and semantic analysis. 19 included, 4 chore/ci excluded.</text>
  <rect x="80" y="585" width="100" height="24" rx="6" fill="#d76542"/>
  <text x="130" y="601" fill="white" font-family="sans-serif" font-size="10" text-anchor="middle">Re-analyze</text>
  <rect x="190" y="585" width="120" height="24" rx="6" fill="#2a2a2a" stroke="#333" stroke-width="1"/>
  <text x="250" y="601" fill="#a3a3a3" font-family="sans-serif" font-size="10" text-anchor="middle">Manual Override</text>

  <!-- Version input -->
  <text x="60" y="650" fill="white" font-family="sans-serif" font-size="12" font-weight="500">Version</text>
  <rect x="60" y="660" width="200" height="32" rx="6" fill="#0A0A0A" stroke="#333" stroke-width="1"/>
  <text x="80" y="680" fill="white" font-family="sans-serif" font-size="12">2.4.0</text>
  <text x="270" y="680" fill="#a3a3a3" font-family="sans-serif" font-size="10">Suggested: minor bump</text>

  <rect x="60" y="710" width="520" height="40" rx="8" fill="#d76542"/>
  <text x="320" y="735" fill="white" font-family="sans-serif" font-size="14" font-weight="600" text-anchor="middle">Generate Release Notes</text>

  <!-- Right - Preview -->
  <rect x="620" y="70" width="540" height="700" rx="12" fill="#1a1a1a" stroke="#333" stroke-width="1"/>
  <text x="640" y="100" fill="white" font-family="sans-serif" font-size="14" font-weight="600">Preview</text>
  <rect x="1060" y="82" width="80" height="24" rx="4" fill="#2a2a2a" stroke="#333" stroke-width="1"/>
  <text x="1100" y="98" fill="#a3a3a3" font-family="sans-serif" font-size="10" text-anchor="middle">Markdown</text>

  <rect x="640" y="115" width="500" height="640" rx="8" fill="#0A0A0A" stroke="#333" stroke-width="1"/>
  <text x="660" y="145" fill="white" font-family="sans-serif" font-size="20" font-weight="bold">v2.4.0</text>
  <text x="660" y="168" fill="#a3a3a3" font-family="sans-serif" font-size="11">April 8, 2026</text>
  <rect x="660" y="180" width="460" height="1" fill="#333"/>

  <text x="660" y="210" fill="white" font-family="sans-serif" font-size="15" font-weight="600">New Features</text>
  <text x="660" y="235" fill="#a3a3a3" font-family="sans-serif" font-size="11">- **AI Release Notes**: Automatically generate</text>
  <text x="670" y="253" fill="#a3a3a3" font-family="sans-serif" font-size="11">human-readable changelogs from git commits</text>
  <text x="670" y="271" fill="#a3a3a3" font-family="sans-serif" font-size="11">using semantic analysis (#142)</text>
  <text x="660" y="295" fill="#a3a3a3" font-family="sans-serif" font-size="11">- **Multi-Project Support**: Manage release</text>
  <text x="670" y="313" fill="#a3a3a3" font-family="sans-serif" font-size="11">notes for multiple repos in a single</text>
  <text x="670" y="331" fill="#a3a3a3" font-family="sans-serif" font-size="11">dashboard (#138)</text>
  <text x="660" y="355" fill="#a3a3a3" font-family="sans-serif" font-size="11">- **Embeddable Widget**: Drop-in changelog</text>
  <text x="670" y="373" fill="#a3a3a3" font-family="sans-serif" font-size="11">widget for your website with a single</text>
  <text x="670" y="391" fill="#a3a3a3" font-family="sans-serif" font-size="11">script tag (#135)</text>

  <text x="660" y="425" fill="white" font-family="sans-serif" font-size="15" font-weight="600">Bug Fixes</text>
  <text x="660" y="450" fill="#a3a3a3" font-family="sans-serif" font-size="11">- Fixed markdown rendering for code blocks</text>
  <text x="670" y="468" fill="#a3a3a3" font-family="sans-serif" font-size="11">with special characters (#140)</text>
  <text x="660" y="492" fill="#a3a3a3" font-family="sans-serif" font-size="11">- Resolved date parsing issue for non-UTC</text>
  <text x="670" y="510" fill="#a3a3a3" font-family="sans-serif" font-size="11">timezones (#139)</text>

  <text x="660" y="545" fill="white" font-family="sans-serif" font-size="15" font-weight="600">Documentation</text>
  <text x="660" y="570" fill="#a3a3a3" font-family="sans-serif" font-size="11">- Updated API reference for widget</text>
  <text x="670" y="588" fill="#a3a3a3" font-family="sans-serif" font-size="11">integration guide</text>

  <rect x="660" y="610" width="460" height="1" fill="#333"/>
  <text x="660" y="635" fill="#555" font-family="sans-serif" font-size="10">Full Changelog: v2.3.1...v2.4.0</text>
  <text x="660" y="655" fill="#555" font-family="sans-serif" font-size="10">Contributors: @jt-king, @alex-smith</text>

  <!-- AI quality badge -->
  <rect x="660" y="675" width="140" height="24" rx="6" fill="#d76542" opacity="0.15"/>
  <text x="730" y="691" fill="#d76542" font-family="sans-serif" font-size="10" text-anchor="middle">AI Confidence: 94%</text>
</svg>