<svg xmlns="http://www.w3.org/2000/svg" viewBox="0 0 1200 800">
  <rect width="1200" height="800" fill="#0A0A0A"/>
  <rect width="1200" height="48" fill="#111111"/>
  <rect x="0" y="48" width="1200" height="1" fill="#333"/>
  <circle cx="20" cy="24" r="6" fill="#d76542"/>
  <text x="40" y="30" fill="white" font-family="sans-serif" font-size="16" font-weight="bold">Signal Shelf</text>
  <text x="180" y="30" fill="#a3a3a3" font-family="sans-serif" font-size="12">/ Saved Collections</text>

  <!-- Collections list -->
  <rect x="40" y="70" width="300" height="700" rx="12" fill="#1a1a1a" stroke="#333" stroke-width="1"/>
  <text x="60" y="100" fill="white" font-family="sans-serif" font-size="14" font-weight="600">Collections</text>
  <rect x="260" y="82" width="60" height="24" rx="6" fill="#d76542"/>
  <text x="290" y="98" fill="white" font-family="sans-serif" font-size="10" text-anchor="middle">+ New</text>

  <rect x="60" y="120" width="260" height="55" rx="8" fill="#d76542" opacity="0.1" stroke="#d76542" stroke-width="1"/>
  <text x="80" y="143" fill="white" font-family="sans-serif" font-size="13" font-weight="500">AI Agent Ecosystem</text>
  <text x="80" y="162" fill="#a3a3a3" font-family="sans-serif" font-size="10">23 signals - Updated 1h ago</text>
  <circle cx="300" cy="142" r="5" fill="#d76542"/>

  <rect x="60" y="185" width="260" height="55" rx="8" fill="#0A0A0A" stroke="#333" stroke-width="1"/>
  <text x="80" y="208" fill="white" font-family="sans-serif" font-size="13">Frontend Frameworks 2026</text>
  <text x="80" y="227" fill="#a3a3a3" font-family="sans-serif" font-size="10">18 signals - Updated 3h ago</text>

  <rect x="60" y="250" width="260" height="55" rx="8" fill="#0A0A0A" stroke="#333" stroke-width="1"/>
  <text x="80" y="273" fill="white" font-family="sans-serif" font-size="13">Startup Funding Trends</text>
  <text x="80" y="292" fill="#a3a3a3" font-family="sans-serif" font-size="10">12 signals - Updated yesterday</text>

  <rect x="60" y="315" width="260" height="55" rx="8" fill="#0A0A0A" stroke="#333" stroke-width="1"/>
  <text x="80" y="338" fill="white" font-family="sans-serif" font-size="13">DevOps Best Practices</text>
  <text x="80" y="357" fill="#a3a3a3" font-family="sans-serif" font-size="10">9 signals - Updated 2d ago</text>

  <rect x="60" y="380" width="260" height="55" rx="8" fill="#0A0A0A" stroke="#333" stroke-width="1"/>
  <text x="80" y="403" fill="white" font-family="sans-serif" font-size="13">Competitor Watch</text>
  <text x="80" y="422" fill="#a3a3a3" font-family="sans-serif" font-size="10">31 signals - Updated 4h ago</text>

  <!-- Alerts section -->
  <text x="60" y="470" fill="white" font-family="sans-serif" font-size="14" font-weight="600">Active Alerts</text>
  <rect x="60" y="485" width="260" height="45" rx="6" fill="#0A0A0A" stroke="#d76542" stroke-width="1"/>
  <circle cx="78" cy="507" r="4" fill="#d76542"/>
  <text x="90" y="503" fill="white" font-family="sans-serif" font-size="10">"LLM" mentions &gt; 50/day</text>
  <text x="90" y="520" fill="#10B981" font-family="sans-serif" font-size="9">Triggered 2x today</text>

  <rect x="60" y="540" width="260" height="45" rx="6" fill="#0A0A0A" stroke="#333" stroke-width="1"/>
  <circle cx="78" cy="562" r="4" fill="#10B981"/>
  <text x="90" y="558" fill="white" font-family="sans-serif" font-size="10">Negative sentiment spike</text>
  <text x="90" y="575" fill="#a3a3a3" font-family="sans-serif" font-size="9">Not triggered</text>

  <!-- Main - Collection detail -->
  <rect x="360" y="70" width="800" height="700" rx="12" fill="#1a1a1a" stroke="#333" stroke-width="1"/>
  <text x="380" y="100" fill="white" font-family="sans-serif" font-size="16" font-weight="600">AI Agent Ecosystem</text>
  <text x="380" y="120" fill="#a3a3a3" font-family="sans-serif" font-size="11">23 signals curated from 5 sources</text>

  <!-- Collection summary -->
  <rect x="380" y="140" width="760" height="80" rx="8" fill="#0A0A0A" stroke="#d76542" stroke-width="1"/>
  <text x="400" y="165" fill="#d76542" font-family="sans-serif" font-size="12" font-weight="500">Collection Summary (AI Generated)</text>
  <text x="400" y="185" fill="#a3a3a3" font-family="sans-serif" font-size="11">The AI agent space is rapidly evolving. Key themes: Rust-based agent frameworks gaining</text>
  <text x="400" y="203" fill="#a3a3a3" font-family="sans-serif" font-size="11">traction, multi-agent architectures becoming mainstream, and open-source tools closing the gap.</text>

  <!-- Signal list in collection -->
  <rect x="380" y="235" width="760" height="60" rx="6" fill="#0A0A0A" stroke="#333" stroke-width="1"/>
  <rect x="396" y="248" width="20" height="20" rx="4" fill="#FF6600" opacity="0.2"/>
  <text x="406" y="262" fill="#FF6600" font-family="sans-serif" font-size="10" text-anchor="middle">Y</text>
  <text x="426" y="260" fill="white" font-family="sans-serif" font-size="12">Open source LLM agent framework in Rust</text>
  <text x="426" y="280" fill="#555" font-family="sans-serif" font-size="10">423 pts - 1h ago</text>
  <circle cx="1110" cy="265" r="5" fill="#10B981"/>
  <text x="1090" y="269" fill="#10B981" font-family="sans-serif" font-size="9" text-anchor="end">+</text>

  <rect x="380" y="305" width="760" height="60" rx="6" fill="#0A0A0A" stroke="#333" stroke-width="1"/>
  <rect x="396" y="318" width="20" height="20" rx="4" fill="#1DA1F2" opacity="0.2"/>
  <text x="406" y="332" fill="#1DA1F2" font-family="sans-serif" font-size="10" text-anchor="middle">X</text>
  <text x="426" y="330" fill="white" font-family="sans-serif" font-size="12">Multi-agent systems are the next paradigm shift</text>
  <text x="426" y="350" fill="#555" font-family="sans-serif" font-size="10">@karpathy - 3h ago</text>
  <circle cx="1110" cy="335" r="5" fill="#10B981"/>

  <rect x="380" y="375" width="760" height="60" rx="6" fill="#0A0A0A" stroke="#333" stroke-width="1"/>
  <rect x="396" y="388" width="20" height="20" rx="4" fill="#FF4500" opacity="0.2"/>
  <text x="406" y="402" fill="#FF4500" font-family="sans-serif" font-size="10" text-anchor="middle">R</text>
  <text x="426" y="400" fill="white" font-family="sans-serif" font-size="12">Comparison: CrewAI vs AutoGen vs LangGraph</text>
  <text x="426" y="420" fill="#555" font-family="sans-serif" font-size="10">r/MachineLearning - 5h ago</text>
  <circle cx="1110" cy="405" r="5" fill="#a3a3a3"/>

  <rect x="380" y="445" width="760" height="60" rx="6" fill="#0A0A0A" stroke="#333" stroke-width="1"/>
  <rect x="396" y="458" width="20" height="20" rx="4" fill="#1DA1F2" opacity="0.2"/>
  <text x="406" y="472" fill="#1DA1F2" font-family="sans-serif" font-size="10" text-anchor="middle">X</text>
  <text x="426" y="470" fill="white" font-family="sans-serif" font-size="12">Why we rebuilt our agent infra from scratch</text>
  <text x="426" y="490" fill="#555" font-family="sans-serif" font-size="10">@levelsio - 8h ago</text>
  <circle cx="1110" cy="475" r="5" fill="#F59E0B"/>

  <rect x="380" y="515" width="760" height="60" rx="6" fill="#0A0A0A" stroke="#333" stroke-width="1"/>
  <rect x="396" y="528" width="20" height="20" rx="4" fill="#FF6600" opacity="0.2"/>
  <text x="406" y="542" fill="#FF6600" font-family="sans-serif" font-size="10" text-anchor="middle">Y</text>
  <text x="426" y="540" fill="white" font-family="sans-serif" font-size="12">Claude Agent SDK vs OpenAI Agents SDK</text>
  <text x="426" y="560" fill="#555" font-family="sans-serif" font-size="10">Hacker News - 12h ago</text>
  <circle cx="1110" cy="545" r="5" fill="#10B981"/>

  <text x="380" y="600" fill="#555" font-family="sans-serif" font-size="11">+18 more signals in this collection</text>

  <!-- Notes -->
  <rect x="380" y="625" width="760" height="130" rx="8" fill="#0A0A0A" stroke="#333" stroke-width="1"/>
  <text x="400" y="650" fill="white" font-family="sans-serif" font-size="12" font-weight="500">My Notes</text>
  <text x="400" y="675" fill="#a3a3a3" font-family="sans-serif" font-size="11">Key takeaway: Rust-based frameworks seem to have performance advantage.</text>
  <text x="400" y="695" fill="#a3a3a3" font-family="sans-serif" font-size="11">Need to investigate: How does the new Anthropic SDK compare in benchmarks?</text>
  <text x="400" y="715" fill="#a3a3a3" font-family="sans-serif" font-size="11">Action item: Try the Rust agent framework this weekend.</text>
  <text x="400" y="740" fill="#555" font-family="sans-serif" font-size="10">Last edited: 30 min ago</text>
</svg>