<svg xmlns="http://www.w3.org/2000/svg" viewBox="0 0 1200 800">
  <rect width="1200" height="800" fill="#0A0A0A"/>
  <rect width="1200" height="48" fill="#111111"/>
  <rect x="0" y="48" width="1200" height="1" fill="#333"/>
  <circle cx="20" cy="24" r="6" fill="#d76542"/>
  <text x="40" y="30" fill="white" font-family="sans-serif" font-size="16" font-weight="bold">Signal Shelf</text>
  <text x="180" y="30" fill="#a3a3a3" font-family="sans-serif" font-size="12">/ Trend Analysis</text>

  <!-- Trend chart -->
  <rect x="40" y="70" width="1120" height="320" rx="12" fill="#1a1a1a" stroke="#333" stroke-width="1"/>
  <text x="60" y="100" fill="white" font-family="sans-serif" font-size="14" font-weight="600">Signal Volume - Last 7 Days</text>

  <!-- Legend -->
  <line x1="600" y1="92" x2="620" y2="92" stroke="#d76542" stroke-width="2"/>
  <text x="625" y="96" fill="#a3a3a3" font-family="sans-serif" font-size="10">AI/ML</text>
  <line x1="680" y1="92" x2="700" y2="92" stroke="#3B82F6" stroke-width="2"/>
  <text x="705" y="96" fill="#a3a3a3" font-family="sans-serif" font-size="10">Web Dev</text>
  <line x1="770" y1="92" x2="790" y2="92" stroke="#10B981" stroke-width="2"/>
  <text x="795" y="96" fill="#a3a3a3" font-family="sans-serif" font-size="10">DevOps</text>

  <!-- Grid -->
  <text x="60" y="140" fill="#555" font-family="sans-serif" font-size="10">100</text>
  <text x="60" y="200" fill="#555" font-family="sans-serif" font-size="10">75</text>
  <text x="60" y="260" fill="#555" font-family="sans-serif" font-size="10">50</text>
  <text x="60" y="320" fill="#555" font-family="sans-serif" font-size="10">25</text>
  <line x1="95" y1="135" x2="1130" y2="135" stroke="#222" stroke-width="1"/>
  <line x1="95" y1="195" x2="1130" y2="195" stroke="#222" stroke-width="1"/>
  <line x1="95" y1="255" x2="1130" y2="255" stroke="#222" stroke-width="1"/>
  <line x1="95" y1="315" x2="1130" y2="315" stroke="#222" stroke-width="1"/>

  <!-- AI/ML line -->
  <defs>
    <linearGradient id="aiGrad" x1="0" y1="0" x2="0" y2="1">
      <stop offset="0%" stop-color="#d76542" stop-opacity="0.2"/>
      <stop offset="100%" stop-color="#d76542" stop-opacity="0"/>
    </linearGradient>
  </defs>
  <path d="M150,260 L300,250 L450,230 L600,220 L750,200 L900,170 L1050,140 L1050,350 L150,350 Z" fill="url(#aiGrad)"/>
  <polyline points="150,260 300,250 450,230 600,220 750,200 900,170 1050,140" fill="none" stroke="#d76542" stroke-width="2.5"/>
  <circle cx="1050" cy="140" r="4" fill="#d76542"/>
  <!-- Web Dev line -->
  <polyline points="150,270 300,265 450,275 600,260 750,255 900,250 1050,245" fill="none" stroke="#3B82F6" stroke-width="2"/>
  <!-- DevOps line -->
  <polyline points="150,300 300,290 450,285 600,295 750,280 900,275 1050,270" fill="none" stroke="#10B981" stroke-width="2"/>

  <!-- X axis -->
  <text x="150" y="365" fill="#555" font-family="sans-serif" font-size="10" text-anchor="middle">Apr 2</text>
  <text x="300" y="365" fill="#555" font-family="sans-serif" font-size="10" text-anchor="middle">Apr 3</text>
  <text x="450" y="365" fill="#555" font-family="sans-serif" font-size="10" text-anchor="middle">Apr 4</text>
  <text x="600" y="365" fill="#555" font-family="sans-serif" font-size="10" text-anchor="middle">Apr 5</text>
  <text x="750" y="365" fill="#555" font-family="sans-serif" font-size="10" text-anchor="middle">Apr 6</text>
  <text x="900" y="365" fill="#555" font-family="sans-serif" font-size="10" text-anchor="middle">Apr 7</text>
  <text x="1050" y="365" fill="#d76542" font-family="sans-serif" font-size="10" text-anchor="middle" font-weight="bold">Today</text>

  <!-- Source breakdown -->
  <rect x="40" y="410" width="360" height="360" rx="12" fill="#1a1a1a" stroke="#333" stroke-width="1"/>
  <text x="60" y="440" fill="white" font-family="sans-serif" font-size="14" font-weight="600">Source Breakdown</text>

  <!-- Donut chart simulation -->
  <circle cx="220" cy="560" r="80" fill="none" stroke="#1DA1F2" stroke-width="20" stroke-dasharray="125 377" stroke-dashoffset="0"/>
  <circle cx="220" cy="560" r="80" fill="none" stroke="#FF4500" stroke-width="20" stroke-dasharray="100 377" stroke-dashoffset="-125"/>
  <circle cx="220" cy="560" r="80" fill="none" stroke="#FF6600" stroke-width="20" stroke-dasharray="90 377" stroke-dashoffset="-225"/>
  <circle cx="220" cy="560" r="80" fill="none" stroke="#8B5CF6" stroke-width="20" stroke-dasharray="62 377" stroke-dashoffset="-315"/>
  <text x="220" y="555" fill="white" font-family="sans-serif" font-size="20" font-weight="bold" text-anchor="middle">142</text>
  <text x="220" y="575" fill="#a3a3a3" font-family="sans-serif" font-size="11" text-anchor="middle">signals</text>

  <!-- Legend -->
  <rect x="330" y="500" width="10" height="10" rx="2" fill="#1DA1F2"/>
  <text x="346" y="510" fill="#a3a3a3" font-family="sans-serif" font-size="10">Twitter 33%</text>
  <rect x="330" y="525" width="10" height="10" rx="2" fill="#FF4500"/>
  <text x="346" y="535" fill="#a3a3a3" font-family="sans-serif" font-size="10">Reddit 27%</text>
  <rect x="330" y="550" width="10" height="10" rx="2" fill="#FF6600"/>
  <text x="346" y="560" fill="#a3a3a3" font-family="sans-serif" font-size="10">HN 24%</text>
  <rect x="330" y="575" width="10" height="10" rx="2" fill="#8B5CF6"/>
  <text x="346" y="585" fill="#a3a3a3" font-family="sans-serif" font-size="10">Other 16%</text>

  <!-- Top authors -->
  <rect x="420" y="410" width="360" height="360" rx="12" fill="#1a1a1a" stroke="#333" stroke-width="1"/>
  <text x="440" y="440" fill="white" font-family="sans-serif" font-size="14" font-weight="600">Top Contributors</text>

  <rect x="440" y="460" width="320" height="40" rx="6" fill="#0A0A0A"/>
  <text x="460" y="484" fill="white" font-family="sans-serif" font-size="12">@karpathy</text>
  <rect x="680" y="470" width="60" height="20" rx="4" fill="#d76542" opacity="0.2"/>
  <text x="710" y="484" fill="#d76542" font-family="sans-serif" font-size="10" text-anchor="middle">18 signals</text>

  <rect x="440" y="508" width="320" height="40" rx="6" fill="#0A0A0A"/>
  <text x="460" y="532" fill="white" font-family="sans-serif" font-size="12">@kelseyhightower</text>
  <rect x="680" y="518" width="60" height="20" rx="4" fill="#2a2a2a"/>
  <text x="710" y="532" fill="#a3a3a3" font-family="sans-serif" font-size="10" text-anchor="middle">14 signals</text>

  <rect x="440" y="556" width="320" height="40" rx="6" fill="#0A0A0A"/>
  <text x="460" y="580" fill="white" font-family="sans-serif" font-size="12">u/spez</text>
  <rect x="680" y="566" width="60" height="20" rx="4" fill="#2a2a2a"/>
  <text x="710" y="580" fill="#a3a3a3" font-family="sans-serif" font-size="10" text-anchor="middle">11 signals</text>

  <rect x="440" y="604" width="320" height="40" rx="6" fill="#0A0A0A"/>
  <text x="460" y="628" fill="white" font-family="sans-serif" font-size="12">@levelsio</text>
  <rect x="680" y="614" width="60" height="20" rx="4" fill="#2a2a2a"/>
  <text x="710" y="628" fill="#a3a3a3" font-family="sans-serif" font-size="10" text-anchor="middle">9 signals</text>

  <!-- Sentiment timeline -->
  <rect x="800" y="410" width="360" height="360" rx="12" fill="#1a1a1a" stroke="#333" stroke-width="1"/>
  <text x="820" y="440" fill="white" font-family="sans-serif" font-size="14" font-weight="600">Sentiment Over Time</text>

  <!-- Stacked area simulation -->
  <text x="820" y="480" fill="#555" font-family="sans-serif" font-size="10">100%</text>
  <text x="820" y="560" fill="#555" font-family="sans-serif" font-size="10">50%</text>
  <text x="820" y="640" fill="#555" font-family="sans-serif" font-size="10">0%</text>

  <rect x="860" y="475" width="100" height="85" rx="0" fill="#10B981" opacity="0.2"/>
  <rect x="860" y="560" width="100" height="40" rx="0" fill="#a3a3a3" opacity="0.1"/>
  <rect x="860" y="600" width="100" height="35" rx="0" fill="#EF4444" opacity="0.15"/>

  <rect x="970" y="470" width="100" height="95" rx="0" fill="#10B981" opacity="0.2"/>
  <rect x="970" y="565" width="100" height="35" rx="0" fill="#a3a3a3" opacity="0.1"/>
  <rect x="970" y="600" width="100" height="35" rx="0" fill="#EF4444" opacity="0.15"/>

  <rect x="1080" y="465" width="60" height="105" rx="0" fill="#10B981" opacity="0.25"/>
  <rect x="1080" y="570" width="60" height="30" rx="0" fill="#a3a3a3" opacity="0.1"/>
  <rect x="1080" y="600" width="60" height="35" rx="0" fill="#EF4444" opacity="0.15"/>

  <text x="910" y="660" fill="#555" font-family="sans-serif" font-size="9" text-anchor="middle">Last week</text>
  <text x="1020" y="660" fill="#555" font-family="sans-serif" font-size="9" text-anchor="middle">This week</text>
  <text x="1110" y="660" fill="#d76542" font-family="sans-serif" font-size="9" text-anchor="middle">Today</text>

  <rect x="820" y="680" width="10" height="10" rx="2" fill="#10B981" opacity="0.4"/>
  <text x="836" y="690" fill="#a3a3a3" font-family="sans-serif" font-size="10">Positive</text>
  <rect x="900" y="680" width="10" height="10" rx="2" fill="#a3a3a3" opacity="0.2"/>
  <text x="916" y="690" fill="#a3a3a3" font-family="sans-serif" font-size="10">Neutral</text>
  <rect x="970" y="680" width="10" height="10" rx="2" fill="#EF4444" opacity="0.3"/>
  <text x="986" y="690" fill="#a3a3a3" font-family="sans-serif" font-size="10">Negative</text>

  <text x="820" y="730" fill="#d76542" font-family="sans-serif" font-size="11">Positive sentiment trending up</text>
  <text x="820" y="748" fill="#a3a3a3" font-family="sans-serif" font-size="10">+8% compared to last week</text>
</svg>